<svg width="640" height="641" viewBox="0 0 640 641" fill="none" xmlns="http://www.w3.org/2000/svg">
<path d="M462.191 602.935L461.799 602.117L463.296 601.092L459.117 592.74L458.784 595.503L456.879 603.752L457.062 604.209L458.622 603.71L459.014 604.528L454.416 606.861L454.024 606.043L455.28 605.157L450.134 594.713L448.669 595.237L448.277 594.419L452.97 592.112L453.362 592.93L452.011 593.79L456.26 602.262L456.542 599.689L458.497 591.25L458.15 590.647L456.469 591.216L456.077 590.398L460.77 588.09L461.162 588.908L459.811 589.768L464.957 600.213L466.397 599.783L466.789 600.602L462.191 602.935Z" fill="#313131"/>
<path d="M450.815 608.137C450.308 608.51 449.946 608.719 449.585 608.927C449.223 609.136 448.862 609.345 448.526 609.459C447.131 610.103 445.933 610.393 444.957 610.234C443.981 610.074 443.297 609.585 442.861 608.552C442.495 607.639 442.413 606.802 442.737 605.972C443.062 605.142 443.645 604.484 444.394 603.972C443.36 604.408 442.429 604.463 441.573 604.234C440.743 603.91 440.18 603.352 439.788 602.534C439.213 601.259 439.182 600.232 439.653 599.238C440.123 598.244 441.163 597.402 442.799 596.618C443.497 596.296 444.169 596.068 444.695 596.006C445.246 595.848 445.773 595.785 446.083 595.766C446.394 595.748 446.609 595.704 446.704 595.729L447.702 598.848L446.884 599.24L445.391 597.211C444.7 597.127 443.933 597.329 442.899 597.765C442.107 598.062 441.669 598.556 441.491 599.221C441.312 599.886 441.419 600.628 441.786 601.541C442.108 602.239 442.576 602.772 443.216 603.045C443.856 603.318 444.693 603.237 445.726 602.801L446.88 602.295L447.342 603.234L446.308 603.67C445.852 603.853 445.465 604.157 445.052 604.555C444.735 604.98 444.513 605.429 444.385 605.904C444.353 606.405 444.39 607.026 444.643 607.603C444.94 608.396 445.434 608.834 446.004 608.986C446.574 609.139 447.221 609.007 448.013 608.71C448.495 608.432 448.952 608.249 449.244 607.919C449.536 607.59 449.707 607.33 449.758 607.14L449.405 605.416L450.464 604.885L451.805 607.485C451.684 607.555 451.323 607.763 450.815 608.137Z" fill="#313131"/>
<path d="M435.592 613.632L437.101 613.324L437.467 614.237L435.089 615.127C434.728 615.336 434.176 615.494 433.599 615.747C433.022 615.999 432.661 616.208 432.42 616.347C430.835 616.941 429.567 617.111 428.712 616.882C427.856 616.652 427.198 616.068 426.857 615.06C426.56 614.268 426.479 613.431 426.777 612.696C426.981 611.936 427.565 611.278 428.288 610.86C427.159 611.271 426.202 611.422 425.372 611.098C424.543 610.773 423.884 610.19 423.543 609.181C423.037 608.027 423.128 606.931 423.718 605.867C424.309 604.803 425.47 603.892 427.391 603.184C427.847 603.001 428.184 602.887 428.615 602.799C429.502 602.528 430.079 602.275 430.295 602.231L432.577 601.315L432.849 602.202L431.428 602.942L435.592 613.632ZM427.688 603.977C426.534 604.483 425.785 604.995 425.392 605.704C424.998 606.414 425.105 607.155 425.376 608.043C425.743 608.956 426.211 609.489 426.851 609.762C427.49 610.035 428.327 609.954 429.361 609.518C430.515 609.012 431.282 608.81 431.643 608.602L429.679 603.39C429.273 603.383 428.696 603.636 427.688 603.977ZM430.951 610.046L430.038 610.412C429.245 610.709 428.712 611.178 428.439 611.817C428.166 612.457 428.177 613.173 428.569 613.991C428.866 614.784 429.335 615.317 429.879 615.565C430.424 615.813 431.261 615.731 432.294 615.295C432.751 615.112 433.112 614.903 433.569 614.72L433.93 614.511L432.079 609.635C431.838 609.774 431.502 609.888 430.951 610.046Z" fill="#313131"/>
<path d="M420.754 620.352L418.833 621.059L410.423 610.25L409.25 610.445L408.979 609.557L413.683 607.966L413.955 608.853L412.56 609.498L414.262 611.889L419.423 610.115L419.375 607.25L417.772 607.533L417.5 606.646L421.748 605.238L422.019 606.125L420.96 606.656L420.754 620.352ZM418.767 617.884L419.722 619.26L419.585 617.492L419.428 611.236L414.939 612.784L418.767 617.884Z" fill="#313131"/>
<path d="M406.138 611.037C407.278 611.342 408.152 611.882 408.924 612.802C409.696 613.722 410.322 614.806 410.657 616.22C411.016 617.539 411.091 618.781 410.855 620.042C410.619 621.303 410.054 622.272 409.229 623.069C408.404 623.867 407.414 624.518 406.191 624.903C405.303 625.175 404.131 625.37 402.793 625.419L402.172 625.456L401.416 622.198L402.639 621.813L403.796 623.956C403.986 624.007 404.367 624.109 404.772 624.116C405.178 624.123 405.729 623.965 406.376 623.833C407.143 623.631 407.771 623.188 408.234 622.599C408.698 622.01 409.022 621.18 409.061 620.274C409.1 619.368 409 618.221 408.684 617.118C408.369 616.014 407.933 614.981 407.325 614.207C406.718 613.433 406.085 612.754 405.35 612.455C404.615 612.157 403.735 612.023 402.847 612.294C402.2 612.426 401.718 612.705 401.477 612.844C401.236 612.983 400.945 613.312 400.773 613.572L400.549 615.549L399.376 615.744L399.062 613.113C399.278 613.069 399.639 612.861 400.121 612.582C400.508 612.279 400.87 612.07 401.326 611.887C401.688 611.678 402.239 611.52 402.791 611.362C403.85 610.831 404.997 610.731 406.138 611.037Z" fill="#313131"/>
<path d="M392.051 625.596C391.676 626.616 391.11 627.585 390.432 628.218C389.632 628.921 388.789 629.408 387.832 629.559C386.633 629.849 385.537 629.759 384.612 629.409C383.687 629.059 382.839 628.424 382.162 627.53C381.485 626.636 380.954 625.577 380.715 624.188C380.406 622.68 380.357 621.342 380.567 620.177C380.803 618.916 381.368 617.947 382.098 617.124C382.828 616.301 383.767 615.839 384.87 615.524C386.068 615.233 387.19 615.228 388.21 615.604C389.229 615.979 389.983 616.588 390.685 617.387C391.362 618.282 391.894 619.341 392.133 620.729L395.055 620.086L393.832 614.767L392.254 614.956L392.077 614.094L397.085 612.889L397.262 613.751L395.797 614.275L398.471 625.585L399.929 625.466L400.105 626.328L395.217 627.463L395.041 626.601L396.506 626.077L395.371 621.189L392.423 621.927C392.446 623.36 392.331 624.551 392.051 625.596ZM389.984 626.468C390.41 625.258 390.412 623.731 389.945 621.671C389.497 619.921 388.852 618.526 387.96 617.676C387.067 616.825 386.047 616.45 384.754 616.715C383.556 617.005 382.852 617.733 382.451 618.848C382.05 619.963 382.118 621.611 382.585 623.671C383.033 625.421 383.582 626.79 384.475 627.641C385.342 628.586 386.387 628.866 387.491 628.551C388.758 628.381 389.558 627.678 389.984 626.468Z" fill="#313131"/>
<path d="M370.777 624.785C370.213 624.227 369.39 623.497 368.523 622.551C367.89 621.872 367.517 621.365 367.188 621.073C366.858 620.781 366.599 620.61 366.409 620.559L365.718 620.476L365.542 619.613L367.792 619.198C368.102 619.179 368.457 619.376 368.856 619.789C369.255 620.201 369.888 620.88 370.565 621.774C371.406 622.815 372.039 623.494 372.603 624.052C373.071 624.585 373.521 624.807 373.952 624.719L375.124 624.524L374.186 619.282L372.539 619.349L372.362 618.487L377.389 617.593L377.54 618.55L376.101 618.98L378.128 630.421L379.655 630.423L379.806 631.38L374.9 632.205L374.8 631.058L376.264 630.533L375.352 625.196L373.748 625.479L370.927 631.446L372.48 631.353L372.631 632.31L368.13 633.141L367.979 632.184L369.418 631.755L372.48 625.649C371.98 625.617 371.365 625.248 370.777 624.785Z" fill="#313131"/>
<path d="M362.422 620.611C363.417 621.081 364.145 621.785 364.676 622.845C365.232 623.808 365.617 625.032 365.857 626.42C366.096 627.809 365.955 629.095 365.529 630.305C365.128 631.42 364.468 632.363 363.669 633.066C362.774 633.743 361.836 634.204 360.568 634.374C358.654 634.676 357.038 634.243 355.911 633.126C354.784 632.01 353.975 630.469 353.75 628.269C353.536 626.786 353.677 625.5 354.077 624.385C354.504 623.175 355.138 622.326 355.963 621.529C356.858 620.851 357.891 620.415 359.064 620.22C360.332 620.051 361.428 620.141 362.422 620.611ZM363.195 631.411C363.716 630.227 363.908 628.75 363.657 626.646C363.45 624.757 362.901 623.387 362.059 622.347C361.217 621.307 360.197 620.932 359.025 621.127C357.852 621.322 356.983 621.904 356.462 623.088C355.941 624.273 355.724 625.844 356 627.854C356.207 629.742 356.757 631.112 357.624 632.057C358.396 632.977 359.39 633.447 360.658 633.278C361.78 633.273 362.674 632.596 363.195 631.411Z" fill="#313131"/>
<path d="M351.049 634.166L352.551 634.263L352.607 635.195L350.097 635.439C349.691 635.432 349.14 635.59 348.519 635.627C347.872 635.759 347.466 635.753 347.251 635.797C345.578 635.96 344.291 635.819 343.512 635.304C342.733 634.79 342.316 634.067 342.19 633.015C342.109 632.178 342.338 631.323 342.707 630.709C343.075 630.094 343.823 629.582 344.711 629.31C343.564 629.41 342.588 629.251 341.809 628.736C341.03 628.222 340.638 627.404 340.582 626.472C340.508 625.23 340.788 624.185 341.638 623.292C342.488 622.4 343.858 621.85 345.937 621.694C346.368 621.606 346.774 621.613 347.274 621.645C348.206 621.589 348.827 621.552 349.017 621.603L351.527 621.358L351.583 622.29L350.074 622.599L351.049 634.166ZM346.062 622.746C344.82 622.821 343.907 623.187 343.444 623.776C342.885 624.339 342.682 625.1 342.833 626.057C342.888 626.989 343.211 627.686 343.73 628.029C344.249 628.372 345.105 628.601 346.157 628.475C347.399 628.401 348.236 628.32 348.572 628.206L348.116 622.685C347.736 622.583 347.115 622.621 346.062 622.746ZM347.62 629.479L346.568 629.604C345.731 629.685 345.033 630.008 344.69 630.527C344.348 631.046 344.144 631.807 344.225 632.643C344.307 633.48 344.534 634.152 345.053 634.495C345.573 634.838 346.333 635.041 347.385 634.916C347.816 634.828 348.317 634.86 348.773 634.677L349.204 634.589L348.767 629.379C348.456 629.397 348.146 629.416 347.62 629.479Z" fill="#313131"/>
<path d="M321.696 636.894L321.64 635.963L323.244 635.679L322.89 624.075L321.103 623.901L321.047 622.97L326.276 622.843L326.332 623.775L324.754 623.963L325.082 635.662L331.027 635.524L330.699 623.824L329.007 623.676L328.951 622.745L334.179 622.618L334.235 623.55L332.752 623.763L333.106 635.368L334.677 635.585L334.733 636.517L321.696 636.894Z" fill="#313131"/>
<path d="M317.288 623.694C318.137 624.329 318.839 625.128 319.25 626.257C319.686 627.291 319.856 628.558 319.879 629.991C319.808 631.397 319.572 632.658 318.981 633.722C318.39 634.786 317.661 635.609 316.697 636.166C315.733 636.722 314.63 637.038 313.508 637.043C311.575 637.034 310.131 636.342 309.124 635.155C308.144 633.874 307.67 632.219 307.66 629.976C307.637 628.544 307.993 627.213 308.584 626.149C309.175 625.085 309.93 624.167 310.894 623.611C311.858 623.054 312.961 622.738 314.178 622.759C315.394 622.779 316.44 623.059 317.288 623.694ZM316.534 634.493C317.22 633.454 317.627 631.934 317.661 629.906C317.644 628.068 317.336 626.559 316.709 625.474C316.083 624.39 315.114 623.825 313.898 623.804C312.681 623.784 311.717 624.34 311.031 625.379C310.345 626.417 309.912 628.033 309.878 630.061C309.87 631.994 310.109 633.382 310.83 634.492C311.456 635.577 312.425 636.142 313.642 636.162C314.815 635.967 315.753 635.506 316.534 634.493Z" fill="#313131"/>
<path d="M301.782 627.586C302.145 625.85 302.571 624.64 303.206 623.791C303.523 623.367 303.815 623.038 304.177 622.829C304.538 622.621 304.969 622.532 305.375 622.539C305.971 622.597 306.376 622.604 306.661 622.68L306.66 624.208C306.374 624.131 305.874 624.099 305.278 624.041C305.088 623.99 304.873 624.034 304.632 624.173C304.391 624.313 304.245 624.477 304.099 624.642C303.001 626.079 302.401 629.076 302.111 633.582L302.014 635.084L304.155 635.454L304.116 636.36L293.292 635.701L293.332 634.794L295.1 634.657L295.868 623.048L294.011 622.754L294.051 621.848L299.748 622.254L299.708 623.16L297.75 623.246L296.982 634.856L300.797 635.063L300.945 633.371C301.22 631.204 301.444 629.227 301.782 627.586Z" fill="#313131"/>
<path d="M289.904 634.283L291.424 634.691L291.29 635.572L281.785 634.553L281.858 631.618L282.954 631.708L283.282 633.528L287.901 634.154L288.49 628.914L285.417 628.599L285.01 630.12L284.008 630.055L284.438 625.791L285.439 625.855L285.507 627.503L288.555 627.912L289.126 622.361L283.834 621.962L282.627 624.185L281.538 623.69L282.404 620.458L292.695 621.586L292.561 622.467L291.033 622.465L289.904 634.283Z" fill="#313131"/>
<path d="M274.467 632.592L277.636 632.931L278.844 629.181L280.01 629.391L278.996 634.315L267.451 632.545L267.964 627.59L269.13 627.8L269.183 631.787L272.395 632.342L274.095 620.676L271.503 620.084L271.638 619.203L278.684 620.276L278.55 621.157L276.141 621.021L274.467 632.592Z" fill="#313131"/>
<path d="M261.137 623.418L262.018 623.552C262.354 623.438 262.767 623.04 263.11 622.52C263.452 622.001 264.036 621.343 264.551 620.564C265.065 619.785 265.528 619.196 265.846 618.772C266.163 618.347 266.404 618.208 266.594 618.259L269.116 618.731L268.982 619.612L268.24 619.719C268.025 619.763 267.809 619.807 267.517 620.136C267.251 620.371 266.813 620.864 266.349 621.453C265.74 622.207 265.277 622.795 264.864 623.194C264.426 623.688 264.065 623.897 263.608 624.08C264.413 624.499 264.976 625.058 265.298 625.755C265.621 626.453 265.702 627.289 265.543 628.265C265.256 629.716 264.595 630.66 263.682 631.026C262.674 631.367 261.432 631.442 259.791 631.104C259.411 631.002 259.031 630.9 258.461 630.747C257.89 630.595 257.415 630.467 257.13 630.391L254.513 629.893L254.647 629.013L256.244 629.135L258.489 617.717L256.804 617.164L256.938 616.283L262.362 617.329L262.227 618.21L260.44 618.036L259.547 622.89L261.137 623.418ZM258.595 629.867C259.165 630.019 259.64 630.147 260.02 630.249C260.996 630.408 261.712 630.396 262.315 630.048C262.917 629.701 263.285 629.086 263.471 628.015C263.63 627.04 263.549 626.203 263.106 625.575C262.663 624.947 262.049 624.579 261.098 624.324C260.123 624.165 259.457 623.986 259.147 624.005L258.05 629.619L258.595 629.867Z" fill="#313131"/>
<path d="M248.014 627.541L251.201 628.191L252.695 624.517L253.93 624.848L252.441 629.644L241.151 626.924L242.069 621.975L243.21 622.281L242.857 626.26L245.993 627.101L248.668 615.595L246.128 614.812L246.357 613.957L253.345 615.626L253.116 616.481L250.664 616.13L248.014 627.541Z" fill="#313131"/>
<path d="M236.01 611.898C236.808 612.723 237.244 613.756 237.439 614.929C237.634 616.101 237.493 617.388 237.111 618.813C236.754 620.144 236.043 621.277 235.218 622.075C234.368 622.967 233.309 623.499 232.206 623.814C231.008 624.104 229.912 624.014 228.676 623.683C227.726 623.429 226.731 622.958 225.477 622.317L224.933 622.069L226.083 618.914L227.319 619.245L227.088 621.628C227.227 621.869 227.487 622.04 227.841 622.237C228.196 622.434 228.741 622.682 229.311 622.835C230.071 623.038 230.787 623.027 231.554 622.825C232.226 622.597 232.975 622.085 233.489 621.306C234.099 620.553 234.569 619.558 234.874 618.418C235.18 617.277 235.365 616.206 235.334 615.18C235.304 614.153 235.033 613.265 234.615 612.542C234.198 611.819 233.514 611.331 232.563 611.076C231.898 610.898 231.423 610.77 231.017 610.764C230.612 610.757 230.276 610.87 230.035 611.01L228.816 612.516L227.727 612.021L228.889 609.582C229.175 609.659 229.58 609.665 230.081 609.698C230.581 609.73 230.987 609.737 231.393 609.744C231.798 609.75 232.368 609.903 232.939 610.056C234.174 610.387 235.238 610.978 236.01 611.898Z" fill="#313131"/>
<path d="M217.571 619.893L217.895 619.063L219.726 619.452L222.81 610.602L220.635 612.26L213.423 616.744L213.296 617.219L214.835 617.937L214.511 618.767L209.671 617.063L209.995 616.233L211.446 616.52L215.211 605.51L213.767 604.817L214.091 603.987L219.026 605.717L218.702 606.547L217.061 606.209L213.951 615.154L216.007 613.566L223.433 609.037L223.612 608.372L221.977 607.628L222.302 606.799L227.236 608.528L226.912 609.358L225.366 609.046L221.601 620.056L222.95 620.723L222.626 621.553L217.571 619.893Z" fill="#313131"/>
<path d="M198.477 612.841L200.131 608.192L201.341 608.618L200.443 612.349L204.186 613.964L208.547 603.011L205.564 601.601L205.888 600.771L212.717 603.415L212.393 604.245L210.397 603.711L206.182 614.498L207.955 615.483L207.631 616.313L198.477 612.841Z" fill="#313131"/>
<path d="M195.939 610.532L197.142 611.363L196.818 612.193L192.175 610.134L192.499 609.304L194.02 609.712L196.053 605.164L190.036 602.533L188.002 607.081L189.3 607.938L188.976 608.768L184.428 606.734L184.752 605.904L186.178 606.286L190.868 595.626L189.544 594.864L189.868 594.034L194.416 596.067L194.092 596.897L192.597 596.395L190.341 601.392L196.359 604.023L198.615 599.026L197.196 598.238L197.52 597.408L202.258 599.493L201.934 600.323L200.534 599.846L195.939 610.532Z" fill="#313131"/>
<path d="M178.227 603.647L176.428 602.757L178.137 589.159L177.193 588.499L177.613 587.694L182.015 589.892L181.595 590.697L180.1 590.194L179.647 593.027L184.499 595.447L186.491 593.333L185.098 592.45L185.517 591.646L189.47 593.621L189.05 594.426L187.935 594.025L178.227 603.647ZM178.472 600.453L178.134 602.094L179.302 600.777L183.674 596.244L179.462 594.097L178.472 600.453Z" fill="#313131"/>
<path d="M170.917 589.873C171.99 588.531 172.961 587.568 173.83 586.986C174.312 586.708 174.648 586.594 175.079 586.506C175.485 586.513 175.865 586.615 176.314 586.837C176.859 587.085 177.188 587.377 177.448 587.548L176.876 588.923C176.616 588.752 176.262 588.555 175.647 588.186C175.483 588.04 175.293 587.989 175.077 588.034C174.862 588.078 174.646 588.122 174.405 588.261C172.864 589.07 170.985 591.521 168.699 595.492L167.937 596.815L169.729 598.11L169.309 598.915L159.923 593.65L160.343 592.845L162.002 593.494L167.687 583.303L166.129 582.275L166.548 581.47L171.609 584.252L171.189 585.057L169.46 584.288L163.801 594.383L167.088 596.18L167.901 594.667C168.791 592.868 169.845 591.215 170.917 589.873Z" fill="#313131"/>
<path d="M142.869 583.172L143.383 582.393L145.017 583.137L151.221 573.289L149.879 572.216L150.393 571.437L154.997 574.403L154.483 575.182L152.943 574.464L146.74 584.311L148.082 585.384L147.568 586.163L142.869 583.172ZM155.682 584.772C154.383 583.915 153.611 582.995 153.27 581.987C152.929 580.979 153.114 579.908 153.825 578.774C154.562 577.546 155.552 576.894 156.724 576.699C157.897 576.504 159.132 576.835 160.456 577.597C160.621 577.743 160.811 577.794 160.975 577.94C161.14 578.086 161.305 578.232 161.495 578.283C162.083 578.746 162.603 579.089 163.027 579.406L165.199 580.803L164.685 581.582L163.241 580.89L157.037 590.737L158.189 591.759L157.675 592.538L153.141 589.693L153.655 588.914L155.384 589.683L157.689 586.023L155.682 584.772ZM161.024 579.277C160.86 579.131 160.6 578.96 160.15 578.737C159.277 578.198 158.421 577.969 157.654 578.17C156.887 578.372 156.234 578.91 155.573 579.854C155.034 580.728 154.83 581.488 155.032 582.255C155.234 583.022 155.772 583.676 156.646 584.215L158.298 585.269L161.657 579.956C161.449 579.595 161.284 579.449 161.024 579.277Z" fill="#313131"/>
<path d="M136.431 577.169L137.462 578.26L136.948 579.039L132.87 576.011L133.385 575.232L134.803 576.02L137.831 571.942L132.55 568.082L129.522 572.16L130.554 573.252L130.04 574.03L126.057 571.028L126.571 570.249L127.92 570.916L134.808 561.557L133.751 560.561L134.265 559.782L138.343 562.81L137.829 563.589L136.505 562.827L133.306 567.164L138.586 571.024L141.786 566.687L140.564 565.544L141.078 564.765L145.251 567.819L144.737 568.598L143.413 567.836L136.431 577.169Z" fill="#313131"/>
<path d="M120.593 566.712L119.016 565.373L123.601 552.443L122.829 551.523L123.413 550.865L127.275 553.937L126.666 554.69L125.368 553.833L124.344 556.513L128.605 559.997L131.066 558.416L129.94 557.299L130.523 556.64L133.961 559.395L133.378 560.053L132.314 559.463L120.593 566.712ZM121.598 563.722L120.975 565.286L122.377 564.236L127.59 560.744L123.918 557.723L121.598 563.722Z" fill="#313131"/>
<path d="M109.49 555.69L110.8 557.263L110.216 557.922L106.551 554.495L110.312 546.539L111.493 544.411L109.489 545.81L101.898 550.193L98.3019 546.886L98.8857 546.228L100.583 547.497L107.401 538.018L106.325 536.711L106.909 536.053L110.808 539.746L110.224 540.404L108.857 539.427L103.804 546.12L101.608 548.994L104.018 547.603L113.004 542.575L113.897 543.426L110.052 552.072L108.445 555.41L111.135 552.973L117.435 547.327L116.169 545.97L116.753 545.311L120.348 548.617L119.765 549.276L118.492 548.324L109.49 555.69Z" fill="#313131"/>
<path d="M93.1618 541.741L91.7313 540.237L97.8554 528.025L97.2038 527.036L97.8827 526.403L101.307 529.969L100.628 530.602L99.3555 529.65L97.9518 532.227L101.8 536.11L104.4 534.77L103.42 533.489L104.098 532.856L107.219 536.035L106.54 536.668L105.597 536.007L93.1618 541.741ZM94.5469 538.852L93.7339 540.366L95.2749 539.557L100.931 536.693L97.5766 533.247L94.5469 538.852Z" fill="#313131"/>
<path d="M86.9547 533.355L87.7454 534.585L87.0665 535.218L85.4273 533.353C85.0981 533.061 84.7944 532.674 84.4652 532.382C83.9714 531.944 83.503 531.411 83.1042 530.999C81.9334 529.666 81.3327 528.487 81.3023 527.46C81.2718 526.433 81.8115 525.56 82.7823 524.597C83.5563 523.99 84.3047 523.477 85.1414 523.396C86.0035 523.22 86.8843 523.354 87.7141 523.678C88.5439 524.002 89.2974 524.612 89.9999 525.411C90.2341 525.677 90.4683 525.944 90.7024 526.21C90.9366 526.477 91.0757 526.718 91.1708 526.743L94.2478 524.003L92.6595 521.947L93.3384 521.314L97.4144 525.87L96.7355 526.503L95.5833 525.481L86.9547 533.355ZM89.2956 526.139C88.6626 525.46 87.8582 525.041 87.0725 524.932C86.2868 524.823 85.2532 525.259 84.2824 526.222C83.483 526.924 83.0893 527.634 83.1011 528.35C83.1129 529.066 83.5048 529.884 84.2073 530.683C84.4415 530.95 84.7707 531.242 85.0999 531.534C85.2645 531.679 85.4291 531.825 85.4987 531.946L90.441 527.566C90.2068 527.3 89.8335 526.792 89.2956 526.139Z" fill="#313131"/>
<path d="M87.2549 515.508C87.45 516.681 87.2649 517.752 86.6742 518.816C86.1786 519.905 85.3028 520.893 84.237 521.83C83.1711 522.766 82.0171 523.272 80.8444 523.467C79.6717 523.662 78.4549 523.642 77.3655 523.146C76.2505 522.745 75.307 522.085 74.4653 521.045C73.8579 520.271 73.2063 519.281 72.6056 518.102L72.3528 517.525L75.036 515.494L75.8081 516.414L74.2976 518.25C74.3417 518.465 74.3603 518.776 74.5435 519.232C74.7522 519.594 75.0305 520.076 75.4039 520.583C75.9418 521.237 76.5561 521.605 77.3164 521.809C78.0766 522.013 78.9133 521.931 79.8009 521.66C80.6885 521.388 81.6524 520.832 82.5723 520.06C83.4922 519.288 84.1965 518.559 84.7363 517.686C85.276 516.812 85.6002 515.982 85.6139 515.171C85.6275 514.359 85.3306 513.567 84.8182 512.818C84.4449 512.311 84.0206 511.994 83.6914 511.702C83.3622 511.41 83.0771 511.333 82.7665 511.352L80.8708 511.964L80.2193 510.975L82.5087 509.653C82.6733 509.799 83.0025 510.091 83.4268 510.408C83.851 510.726 84.2057 510.923 84.5349 511.215C84.8641 511.507 85.1678 511.893 85.6616 512.331C86.6238 513.302 87.1549 514.361 87.2549 515.508Z" fill="#313131"/>
<path d="M56.7806 496.953L57.5291 496.441L58.6745 497.868L66.495 492.63L63.7509 492.608L55.3165 491.774L54.9295 492.078L55.6439 493.593L54.8954 494.106L52.0804 489.786L52.8288 489.274L53.8605 490.365L63.5395 483.893L62.7997 482.473L63.5481 481.96L66.4582 486.305L65.7098 486.818L64.6339 485.511L56.6929 490.818L59.247 490.79L67.8714 491.675L68.4739 491.327L67.6645 489.786L68.413 489.273L71.3231 493.618L70.5746 494.131L69.5684 492.944L59.8895 499.416L60.5342 500.811L59.7858 501.324L56.7806 496.953Z" fill="#313131"/>
<path d="M50.1578 486.317C49.759 485.905 49.4552 485.518 49.126 485.226C48.7968 484.934 48.6832 484.598 48.449 484.332C47.6837 483.006 47.2731 481.878 47.2427 480.851C47.2122 479.824 47.701 479.14 48.665 478.584C49.5085 478.097 50.3706 477.92 51.2259 478.149C52.0812 478.379 52.7651 478.867 53.3981 479.546C52.8415 478.582 52.5955 477.6 52.8247 476.744C53.0538 475.889 53.5427 475.205 54.2911 474.693C55.4011 473.972 56.5737 473.777 57.5937 474.152C58.6136 474.527 59.6012 475.403 60.6006 476.995C60.9485 477.597 61.2963 478.199 61.4541 478.751C61.6119 479.303 61.7951 479.759 61.9088 480.095C62.0225 480.431 62.0666 480.647 62.0411 480.742L59.1305 482.101L58.6436 481.257L60.4137 479.593C60.4019 478.877 60.105 478.084 59.523 477.215C59.1056 476.492 58.5167 476.029 57.9211 475.971C57.3254 475.913 56.4633 476.09 55.6198 476.577C54.9918 477.019 54.5539 477.513 54.2807 478.153C54.1024 478.818 54.2788 479.68 54.8608 480.549L55.582 481.659L54.7131 482.241L54.1565 481.277C53.8782 480.795 53.549 480.503 53.1248 480.186C52.7005 479.869 52.2254 479.741 51.7247 479.709C51.2241 479.677 50.6725 479.835 50.07 480.182C49.3471 480.6 49.0042 481.119 48.8514 481.689C48.7937 482.285 48.926 482.932 49.3434 483.655C49.6217 484.137 49.9254 484.523 50.2801 484.72C50.6093 485.012 50.8944 485.089 51.1099 485.045L52.7901 484.476L53.4417 485.466L51.0758 487.073C50.8857 487.022 50.6516 486.755 50.1578 486.317Z" fill="#313131"/>
<path d="M42.8108 471.922L43.335 473.387L42.517 473.779L41.2902 471.515C41.0815 471.153 40.8032 470.671 40.4299 470.164C40.0566 469.656 39.8479 469.295 39.7088 469.054C38.8994 467.513 38.6093 466.315 38.6484 465.408C38.7825 464.528 39.2714 463.844 40.2353 463.287C41.0534 462.895 41.8205 462.693 42.5807 462.897C43.3665 463.006 44.0503 463.495 44.5882 464.148C44.0572 463.089 43.8112 462.106 44.0404 461.251C44.2695 460.396 44.7583 459.712 45.6969 459.25C46.7813 458.624 47.9286 458.524 49.018 459.02C50.133 459.42 51.1647 460.512 52.1828 462.414C52.3915 462.776 52.5747 463.232 52.7834 463.594C53.1754 464.412 53.4282 464.989 53.5928 465.135L54.75 467.278L53.932 467.67L53.0462 466.414L42.8108 471.922ZM45.8082 466.818L45.3467 465.879C44.9293 465.156 44.4609 464.623 43.7957 464.445C43.1305 464.267 42.4839 464.399 41.6659 464.791C40.9429 465.208 40.4099 465.677 40.2572 466.247C40.1044 466.817 40.3062 467.584 40.7678 468.523C40.9765 468.884 41.2548 469.366 41.4635 469.728L41.6722 470.089L46.2952 467.661C46.2952 467.661 46.0865 467.3 45.8082 466.818ZM51.4598 462.832C50.8337 461.747 50.2007 461.068 49.4659 460.77C48.7311 460.471 47.9895 460.578 47.146 461.065C46.3025 461.552 45.7696 462.02 45.6864 462.711C45.6032 463.401 45.71 464.143 46.2666 465.107C46.8927 466.191 47.2151 466.889 47.4238 467.25L52.3133 464.588C52.1741 464.347 51.9213 463.77 51.4598 462.832Z" fill="#313131"/>
<path d="M34.3096 458.033L33.3866 456.156L42.9996 446.509L42.6841 445.405L43.5021 445.013L45.6705 449.465L44.8525 449.857L43.9922 448.506L41.8351 450.474L44.1868 455.383L47.0583 454.93L46.5595 453.37L47.3775 452.978L49.2677 456.948L48.4497 457.34L47.7981 456.35L34.3096 458.033ZM36.4736 455.659L35.1413 456.829L36.8655 456.477L43.1091 455.603L41.0102 451.272L36.4736 455.659Z" fill="#313131"/>
<path d="M41.6864 442.286C41.5014 443.357 41.0058 444.447 40.2759 445.27C39.5461 446.093 38.4107 446.909 37.1362 447.484C35.8616 448.059 34.5939 448.229 33.4026 448.113C32.2112 447.998 31.0963 447.597 30.1528 446.937C29.2093 446.277 28.4626 445.262 27.957 444.108C27.5905 443.195 27.2749 442.092 27.0103 440.798L26.878 440.152L30.0482 438.964L30.5539 440.118L28.5495 441.516C28.4986 441.706 28.4917 442.112 28.58 442.543C28.6682 442.974 28.8259 443.526 29.0788 444.103C29.4011 444.8 29.844 445.428 30.5534 445.822C31.2627 446.216 32.023 446.419 32.9547 446.364C33.8864 446.308 34.964 446.087 36.1181 445.581C37.1516 445.145 38.1156 444.589 38.915 443.886C39.7144 443.184 40.2032 442.5 40.4324 441.645C40.7566 440.815 40.6752 439.978 40.2832 439.16C40.0304 438.583 39.7521 438.101 39.518 437.835C39.2838 437.568 39.0496 437.302 38.6695 437.2L36.6415 437.166L36.3259 436.063L38.9378 435.438C39.0769 435.679 39.2856 436.041 39.5894 436.428C39.8931 436.815 40.2223 437.107 40.431 437.468C40.6397 437.83 40.918 438.312 41.1708 438.889C41.6765 440.043 41.8715 441.215 41.6864 442.286Z" fill="#313131"/>
<path d="M25.4958 430.105C24.425 429.92 23.4306 429.449 22.6771 428.84C21.9237 428.231 21.3416 427.362 21.0006 426.354C20.59 425.225 20.4645 424.173 20.7446 423.128C21.0248 422.082 21.4695 421.183 22.2688 420.48C23.0937 419.683 24.0577 419.126 25.3067 418.646C26.7714 418.122 28.0391 417.952 29.2559 417.973C30.4472 418.088 31.5622 418.489 32.4106 419.124C33.2591 419.758 33.9362 420.653 34.3722 421.686C34.7828 422.815 34.8828 423.962 34.6978 425.033C34.5127 426.104 33.973 426.978 33.1481 427.775C32.3233 428.573 31.3338 429.224 30.0847 429.705L31.1587 432.539L36.2501 430.644L35.8718 429.014L36.7594 428.743L38.5154 433.593L37.6279 433.865L36.888 432.444L26.0332 436.462L26.342 437.971L25.4544 438.242L23.6729 433.487L24.5605 433.215L25.3003 434.636L30.0556 432.854L28.9816 430.02C27.7835 430.31 26.5412 430.385 25.4958 430.105ZM24.3573 428.272C25.5927 428.603 27.171 428.415 29.1176 427.612C30.8232 426.949 32.0537 426.158 32.8344 425.145C33.6151 424.132 33.8002 423.061 33.3896 421.932C32.979 420.804 32.1305 420.169 30.9901 419.863C29.8497 419.558 28.246 419.841 26.3248 420.549C24.6192 421.212 23.3888 422.003 22.6335 422.921C21.8528 423.934 21.6931 424.91 22.1037 426.038C22.3938 427.236 23.2169 427.966 24.3573 428.272Z" fill="#313131"/>
<path d="M23.702 409.049C24.1908 408.366 24.8256 407.517 25.7013 406.529C26.2852 405.871 26.7231 405.377 27.0405 404.953C27.3324 404.624 27.4088 404.339 27.4597 404.149L27.4479 403.432L28.3355 403.161L29.0616 405.393C29.2008 405.634 28.9784 406.083 28.661 406.508C28.3182 407.027 27.7343 407.685 26.9095 408.483C26.0337 409.47 25.3294 410.198 24.866 410.787C24.4027 411.376 24.2753 411.851 24.389 412.187L24.7046 413.29L29.8146 411.706L29.5568 410.007L30.4444 409.736L31.9849 414.63L31.0973 414.902L30.4525 413.506L19.3449 416.947L19.5586 418.43L18.671 418.702L17.2001 413.928L18.0877 413.656L18.7324 415.051L23.8425 413.467L23.3436 411.907L17.0528 409.916L17.336 411.52L16.4485 411.791L15.0912 407.353L15.9788 407.082L16.649 408.382L23.079 410.614C22.9654 410.278 23.2386 409.638 23.702 409.049Z" fill="#313131"/>
<path d="M26.6915 400.174C26.3163 401.194 25.6815 402.042 24.7871 402.719C23.8927 403.396 22.7132 403.997 21.3945 404.357C19.9809 404.691 18.7386 404.765 17.5728 404.555C16.4069 404.344 15.4379 403.779 14.6149 403.049C13.7918 402.319 13.2353 401.355 12.9452 400.157C12.4278 398.287 12.6451 396.716 13.6228 395.348C14.5749 394.075 16.0464 393.145 18.1321 392.584C19.5458 392.25 20.8831 392.2 22.0489 392.411C23.2148 392.621 24.2788 393.212 25.1018 393.942C25.9248 394.672 26.4814 395.636 26.7715 396.834C27.0616 398.032 27.0666 399.154 26.6915 400.174ZM16.0354 402.309C17.2454 402.735 18.7982 402.642 20.7634 402.15C22.6082 401.728 23.9337 400.963 24.784 400.07C25.6343 399.177 25.9398 398.037 25.6243 396.934C25.3342 395.736 24.5112 395.006 23.3012 394.58C22.0912 394.154 20.4434 394.222 18.4781 394.714C16.6334 395.136 15.3079 395.901 14.4576 396.794C13.6073 397.686 13.3272 398.732 13.6173 399.93C14.1229 401.084 14.9205 401.909 16.0354 402.309Z" fill="#313131"/>
<path d="M11.8411 390.593L11.9343 392.145L11.0722 392.322L10.5175 389.83C10.4293 389.399 10.2715 388.848 10.1138 388.296C9.95597 387.745 9.7727 387.288 9.75406 386.978C9.40122 385.253 9.42169 384.037 9.7459 383.207C10.0701 382.377 10.8186 381.864 11.8012 381.618C12.6633 381.442 13.449 381.551 14.1839 381.849C14.8932 382.243 15.4566 382.802 15.8485 383.62C15.5584 382.421 15.5976 381.515 16.0168 380.711C16.436 379.906 17.1845 379.394 18.1417 379.243C19.3398 378.953 20.5057 379.164 21.4237 379.919C22.3672 380.579 23.107 382 23.504 383.939C23.5922 384.37 23.6804 384.801 23.6736 385.207C23.8245 386.164 23.9823 386.716 24.0264 386.931L24.6066 389.328L23.7445 389.504L23.2202 388.039L11.8411 390.593ZM16.0859 386.535L15.8399 385.553C15.6635 384.69 15.3156 384.088 14.7013 383.72C14.182 383.377 13.3963 383.268 12.5087 383.54C11.6466 383.716 11.0441 384.064 10.7963 384.609C10.5484 385.153 10.4398 385.939 10.6603 387.017C10.7485 387.448 10.8367 387.879 11.02 388.335L11.1337 388.671L16.2114 387.587C16.2623 387.397 16.1486 387.061 16.0859 386.535ZM22.5214 384.185C22.2313 382.987 21.8393 382.169 21.1554 381.68C20.5666 381.217 19.7808 381.108 18.7982 381.354C17.8411 381.505 17.2131 381.948 16.9653 382.493C16.6224 383.012 16.5833 383.918 16.8039 384.996C17.094 386.194 17.2704 387.056 17.3841 387.392L22.7978 386.195C22.8742 385.91 22.7419 385.263 22.5214 384.185Z" fill="#313131"/>
<path d="M5.37942 361.869L6.33657 361.718L6.83537 363.278L18.3213 361.466L18.279 359.723L19.2362 359.572L20.0792 364.789L19.122 364.94L18.7182 363.406L7.23234 365.217L8.18219 371.176L19.7631 369.39L19.7209 367.647L20.678 367.496L21.426 372.687L20.4688 372.838L20.0396 371.399L8.55366 373.211L8.52637 374.833L7.56921 374.984L5.37942 361.869Z" fill="#313131"/>
<path d="M18.0113 355.781C17.5666 356.68 16.7418 357.478 15.7778 358.035C14.8138 358.591 13.5902 358.976 12.1324 359.095C10.6746 359.214 9.38822 359.073 8.27328 358.672C7.15834 358.271 6.21482 357.611 5.53776 356.717C4.86071 355.822 4.42465 354.789 4.32462 353.642C4.11774 351.753 4.55063 350.137 5.6674 349.01C6.78417 347.884 8.39477 347.195 10.5942 346.969C12.052 346.851 13.3383 346.991 14.4533 347.392C15.5682 347.793 16.5117 348.453 17.2838 349.373C17.9609 350.267 18.3969 351.301 18.4969 352.448C18.6411 353.811 18.456 354.882 18.0113 355.781ZM7.16698 356.338C8.32602 356.955 9.82794 357.051 11.9069 356.895C13.7957 356.689 15.1398 356.234 16.1802 355.392C17.1951 354.646 17.6653 353.651 17.4957 352.383C17.3957 351.236 16.7186 350.342 15.5596 349.726C14.4005 349.11 12.8036 348.987 10.8197 349.169C8.93084 349.376 7.4917 349.805 6.54636 350.672C5.53145 351.418 5.15629 352.438 5.32589 353.706C5.40045 354.948 6.0775 355.843 7.16698 356.338Z" fill="#313131"/>
<path d="M12.1034 340.957C13.7953 341.105 15.1513 341.366 16.0507 341.811C16.5004 342.033 16.8296 342.325 17.0638 342.591C17.2725 342.953 17.3861 343.289 17.4744 343.72C17.5116 344.341 17.5048 344.747 17.4284 345.032L15.9452 345.246C15.9265 344.935 15.9333 344.529 15.9215 343.813C15.8774 343.598 15.8333 343.382 15.6687 343.236C15.5041 343.09 15.3395 342.944 15.0799 342.773C13.5661 341.96 10.4928 341.646 5.92933 341.951L4.47154 342.069L4.41197 344.192L3.48027 344.248L2.80237 333.474L3.73406 333.418L4.08692 335.142L15.6983 334.383L15.7765 332.57L16.7082 332.514L17.1133 338.225L16.1816 338.281L15.8797 336.367L4.29379 337.031L4.49203 340.853L6.13989 340.785C8.47845 340.8 10.4114 340.809 12.1034 340.957Z" fill="#313131"/>
<path d="M3.93468 330.008L3.7173 331.58L2.78562 331.636L2.58786 322.11L5.52893 321.777L5.55938 322.804L3.78419 323.347L3.75325 328.024L8.98194 327.897L8.89057 324.817L7.3191 324.6L7.28862 323.573L11.5856 323.502L11.6161 324.529L10.0123 324.812L9.98321 327.962L15.5224 327.816L15.2055 322.537L12.8111 321.59L13.1166 320.449L16.3546 320.909L16.5387 331.246L15.607 331.302L15.4187 329.724L3.93468 330.008Z" fill="#313131"/>
<path d="M3.71863 314.468L3.78453 317.643L7.66227 318.377L7.64182 319.594L2.66095 319.176L2.92838 307.534L7.94155 307.451L7.92107 308.668L3.99738 309.246L3.84778 312.466L15.6102 312.663L15.8225 309.97L16.7287 310.009L16.5618 317.095L15.6556 317.056L15.5065 314.571L3.71863 314.468Z" fill="#313131"/>
<path d="M11.1447 300.059L11.1056 300.965C11.3143 301.327 11.6435 301.618 12.2578 301.987C12.7771 302.33 13.4864 302.723 14.3858 303.168C15.2852 303.613 15.8995 303.981 16.3492 304.204C16.7989 304.426 17.0331 304.692 16.9822 304.882L16.8207 307.386L15.9145 307.346L15.8077 306.605C15.7636 306.389 15.599 306.243 15.3648 305.977C15.0101 305.78 14.5859 305.463 13.902 304.974C13.0976 304.555 12.5088 304.091 11.9895 303.748C11.4702 303.405 11.1665 303.019 10.9578 302.657C10.6336 303.487 10.1702 304.076 9.42175 304.588C8.69876 305.006 7.93169 305.207 6.93042 305.143C5.42852 305.046 4.43408 304.576 3.87753 303.612C3.32097 302.648 3.15137 301.38 3.2737 299.783C3.28052 299.378 3.38236 298.998 3.44011 298.402C3.49787 297.806 3.6252 297.331 3.60656 297.02L3.81893 294.327L4.72516 294.366L4.81836 295.919L16.4279 296.687L16.6962 294.926L17.6024 294.965L17.2473 300.472L16.3411 300.433L16.3243 298.595L11.3179 298.272L11.1447 300.059ZM4.37181 298.346C4.21902 298.916 4.18675 299.417 4.17992 299.822C4.11535 300.824 4.22221 301.565 4.69055 302.098C5.1589 302.631 5.79866 302.904 6.89496 302.994C7.89622 303.059 8.66333 302.857 9.29128 302.414C9.91923 301.971 10.1229 301.211 10.2825 300.235C10.3471 299.234 10.4049 298.638 10.3167 298.207L4.61963 297.801L4.37181 298.346Z" fill="#313131"/>
<path d="M5.31624 287.599L5.07159 290.792L8.87294 291.811L8.75745 293.002L3.78341 292.179L5.05209 280.602L10.0584 280.924L9.94293 282.116L6.02609 282.289L5.5659 285.527L17.2382 286.821L17.7357 284.204L18.6165 284.338L17.8284 291.461L16.9476 291.326L16.9886 288.893L5.31624 287.599Z" fill="#313131"/>
<path d="M19.4406 273.66C18.7108 274.483 17.7213 275.135 16.6182 275.45C15.5151 275.766 14.1778 275.815 12.8219 275.553C11.4659 275.292 10.2559 274.866 9.33789 274.111C8.41984 273.355 7.64777 272.435 7.23717 271.307C6.82658 270.178 6.72654 269.031 6.96254 267.77C7.12215 266.794 7.42772 265.654 7.94883 264.469L8.19665 263.925L11.4787 264.6L11.2427 265.861L8.78368 265.915C8.63771 266.08 8.46627 266.34 8.24392 266.789C8.04702 267.144 7.89424 267.714 7.83649 268.31C7.72781 269.096 7.83468 269.837 8.15706 270.535C8.47945 271.232 9.04281 271.791 9.91676 272.33C10.6957 272.845 11.741 273.125 13.002 273.361C14.1678 273.571 15.1945 273.541 16.2467 273.415C17.2039 273.264 18.117 272.898 18.7704 272.36C19.4238 271.822 19.8176 271.113 19.9772 270.137C20.0604 269.446 20.0927 268.946 20.074 268.635C20.0554 268.324 19.9417 267.988 19.733 267.627L18.0801 266.573L18.3857 265.432L20.9007 266.31C20.8243 266.595 20.938 266.931 21.0007 267.457C21.0889 267.888 21.0567 268.389 21.1449 268.82C21.2331 269.251 21.1057 269.726 21.0225 270.417C20.6915 271.652 20.1959 272.742 19.4406 273.66Z" fill="#313131"/>
<path d="M9.20704 256.352L10.0878 256.487L9.91456 258.274L19.0701 260.218L17.1457 258.276L11.7921 251.647L11.3169 251.519L10.789 253.109L9.90821 252.975L10.9473 247.957L11.828 248.091L11.7312 249.593L23.0979 252.028L23.6004 250.533L24.4557 250.762L23.3912 255.875L22.5359 255.646L22.6837 253.954L13.3381 251.959L15.1928 253.78L20.6161 260.53L21.2813 260.708L21.8347 259.023L22.7155 259.157L21.651 264.27L20.7702 264.136L20.8925 262.539L9.52575 260.105L9.04878 261.505L8.16799 261.371L9.20704 256.352Z" fill="#313131"/>
<path d="M13.7874 236.597L18.59 237.68L18.259 238.916L14.4949 238.518L13.3304 242.484L24.7854 245.35L25.8158 242.265L26.6711 242.494L24.8818 249.552L24.0265 249.323L24.3711 247.276L13.1062 244.461L12.4069 246.311L11.5516 246.082L13.7874 236.597Z" fill="#313131"/>
<path d="M15.7681 233.767L15.1011 235.116L14.2457 234.887L15.7599 229.996L16.6152 230.225L16.3979 231.796L21.1937 233.285L23.0898 226.969L18.294 225.48L17.627 226.829L16.7717 226.6L18.2604 221.804L19.1157 222.034L18.9238 223.51L30.036 226.895L30.608 225.52L31.4633 225.749L29.9745 230.545L29.1193 230.316L29.4316 228.77L24.2557 227.179L22.3595 233.496L27.5355 235.086L28.133 233.617L28.9883 233.846L27.474 238.737L26.6187 238.508L26.9057 237.057L15.7681 233.767Z" fill="#313131"/>
<path d="M20.3025 215.323L21.0273 213.379L34.6786 213.37L35.2692 212.306L36.0991 212.63L34.4457 217.28L33.6159 216.955L33.9283 215.409L30.994 215.336L29.2134 220.461L31.4992 222.194L32.1917 220.75L33.0216 221.074L31.5905 225.274L30.7607 224.95L30.9712 223.784L20.3025 215.323ZM23.5727 215.283L21.8808 215.135L23.3436 216.138L28.3394 219.921L29.9418 215.462L23.5727 215.283Z" fill="#313131"/>
<path d="M33.1977 206.352C34.686 207.26 35.7941 208.066 36.4016 208.84C36.7053 209.227 36.8886 209.684 37.0022 210.02C37.0904 210.451 36.9886 210.831 36.8867 211.211C36.6389 211.756 36.442 212.11 36.2706 212.37L34.8706 211.893C35.042 211.633 35.1693 211.158 35.4171 210.613C35.4681 210.423 35.5444 210.138 35.4749 210.018C35.4308 209.802 35.2916 209.561 35.1525 209.32C34.1021 207.918 31.4803 206.299 27.2361 204.653L25.8615 204.081L24.8516 205.949L24.0217 205.625L28.0328 195.597L28.8626 195.921L28.4042 197.632L39.1667 201.942L40.0052 200.333L40.835 200.657L38.6929 205.991L37.863 205.667L38.3723 203.766L27.6099 199.456L26.1671 202.94L27.7317 203.563C29.8852 204.649 31.7095 205.444 33.1977 206.352Z" fill="#313131"/>
<path d="M36.2079 190.556C36.8749 189.207 37.6302 188.289 38.6637 187.853C39.6973 187.417 40.6986 187.481 41.8831 188.002C43.1371 188.644 44.0297 189.494 44.3198 190.692C44.6354 191.796 44.4944 193.082 43.8274 194.431C43.7764 194.621 43.6305 194.786 43.5795 194.976C43.4336 195.14 43.3826 195.33 43.2112 195.59C42.8429 196.204 42.5951 196.749 42.3473 197.294L41.3305 199.568L40.5262 199.149L41.0286 197.654L30.4444 192.679L29.5873 193.977L28.7829 193.557L30.9878 188.75L31.7922 189.169L31.2133 190.949L35.0961 192.805L36.2079 190.556ZM36.2106 177.621L37.015 178.04L36.4616 179.725L46.9508 184.675L47.8589 183.187L48.6632 183.606L46.3124 188.578L45.508 188.159L46.0614 186.474L35.5722 181.524L34.6642 183.012L33.8598 182.593L36.2106 177.621ZM42.3814 195.266C42.5273 195.101 42.6292 194.721 42.8261 194.366C43.2708 193.467 43.3099 192.561 43.013 191.768C42.7161 190.976 42.0576 190.392 41.0632 189.922C40.1638 189.477 39.2576 189.438 38.5855 189.665C37.888 189.988 37.3296 190.551 36.8849 191.45L36.116 193.18L41.823 195.829C42.064 195.69 42.2354 195.43 42.3814 195.266Z" fill="#313131"/>
<path d="M41.2703 170.522L40.3436 171.7L39.5392 171.281L42.0478 166.86L42.8522 167.28L42.2547 168.749L46.7008 171.163L49.8765 165.393L45.4304 162.979L44.5037 164.157L43.6994 163.738L46.0875 159.387L46.8919 159.806L46.4149 161.206L56.6053 166.89L57.532 165.713L58.3364 166.132L55.9227 170.578L55.1184 170.159L55.7159 168.689L50.9151 166.079L47.7394 171.848L52.5402 174.459L53.5178 173.091L54.3222 173.51L51.7881 178.026L50.9837 177.607L51.5557 176.232L41.2703 170.522Z" fill="#313131"/>
<path d="M49.6943 153.529L50.7737 151.781L64.1362 154.75L64.8915 153.832L65.6704 154.346L63.0226 158.526L62.2437 158.012L62.9362 156.568L60.0852 155.804L57.2151 160.433L59.063 162.66L60.1102 161.412L60.8891 161.927L58.5587 165.682L57.7798 165.168L58.2754 164.078L49.6943 153.529ZM52.7863 154.153L51.1707 153.721L52.367 154.958L56.4871 159.729L58.9889 155.714L52.7863 154.153Z" fill="#313131"/>
<path d="M59.26 141.017L57.9209 142.594L57.142 142.079L60.0494 138.071L68.3801 140.813L70.6796 141.734L69.0404 139.869L63.6935 132.834L66.6009 128.826L67.3798 129.34L66.3954 131.114L76.7317 136.633L77.874 135.412L78.6529 135.926L75.4281 140.358L74.6492 139.844L75.4622 138.33L68.1346 134.126L64.9426 132.354L66.6954 134.555L72.833 142.821L72.1474 143.859L63.1005 141.129L59.5401 139.972L62.2688 142.333L68.6442 147.81L69.8374 146.398L70.6163 146.912L67.8294 150.851L67.0505 150.336L67.838 148.918L59.26 141.017Z" fill="#313131"/>
<path d="M70.9679 123.172L72.212 121.57L85.167 126.06L85.9919 125.262L86.7453 125.872L83.6733 129.734L82.9199 129.124L83.777 127.826L81.0974 126.803L77.708 131.089L79.3149 133.455L80.4317 132.328L81.1851 132.938L78.4305 136.376L77.6771 135.766L78.2677 134.702L70.9679 123.172ZM73.9835 124.082L72.4189 123.459L73.4693 124.861L76.9614 130.074L79.8875 126.377L73.9835 124.082Z" fill="#313131"/>
<path d="M78.5121 115.924L77.3512 116.836L76.5977 116.226L78.2288 114.321C78.5207 113.991 78.8126 113.662 79.0095 113.308C79.4474 112.814 79.7903 112.294 80.2281 111.801C81.3958 110.484 82.5312 109.668 83.4884 109.517C84.4455 109.366 85.4655 109.741 86.4531 110.617C87.2065 111.226 87.719 111.974 87.9904 112.862C88.2619 113.75 88.2482 114.561 88.0191 115.416C87.7899 116.271 87.3452 117.171 86.6408 117.899C86.3744 118.133 86.1775 118.488 85.911 118.722C85.6446 118.956 85.4986 119.121 85.4731 119.216L88.6261 121.894L90.4217 120.134L91.0801 120.718L87.0882 125.352L86.4298 124.768L87.287 123.47L78.5121 115.924ZM85.9824 117.315C86.5917 116.561 86.9159 115.732 86.8346 114.895C86.7532 114.058 86.2662 113.215 85.209 112.219C84.386 111.489 83.6512 111.19 82.9096 111.297C82.1679 111.404 81.54 111.847 80.6897 112.739C80.3977 113.068 80.2008 113.423 79.9089 113.752C79.7375 114.012 79.617 114.081 79.5915 114.176L84.6501 118.486C84.9861 118.372 85.3986 117.973 85.9824 117.315Z" fill="#313131"/>
<path d="M96.3484 113.981C95.2453 114.296 94.1489 114.206 93.0085 113.901C91.8936 113.5 90.8296 112.909 89.7724 111.913C88.8103 110.942 88.0636 109.927 87.6785 108.704C87.2679 107.575 87.2884 106.358 87.4989 105.193C87.8045 104.052 88.3001 102.963 89.2455 102.096C89.9498 101.368 90.7492 100.665 91.9796 99.8743L92.4871 99.501L94.7847 101.95L93.9344 102.843L91.8318 101.566C91.6163 101.61 91.2803 101.724 90.9188 101.933C90.5573 102.142 90.1449 102.54 89.7325 102.939C89.1741 103.502 88.8753 104.237 88.7921 104.928C88.6834 105.714 88.8853 106.481 89.2518 107.394C89.6437 108.212 90.3208 109.106 91.2134 109.957C92.0109 110.781 92.9799 111.347 93.8793 111.791C94.7787 112.236 95.6595 112.37 96.4962 112.289C97.3328 112.207 98.0558 111.79 98.7347 111.157C99.1726 110.663 99.49 110.239 99.6614 109.979C99.8328 109.72 99.9347 109.34 99.916 109.029L99.088 107.177L100.008 106.405L101.666 108.581C101.52 108.746 101.323 109.1 101.075 109.645C100.853 110.095 100.656 110.45 100.459 110.804C100.262 111.159 99.9447 111.583 99.5068 112.077C98.441 113.014 97.3565 113.64 96.3484 113.981Z" fill="#313131"/>
<path d="M107.418 84.4546L108.051 85.1335L106.857 86.5453L113.136 93.5242L112.753 90.7732L112.37 82.3184L112.066 81.9314L110.69 82.8868L110.057 82.2079L113.933 78.7649L114.566 79.4437L113.639 80.6214L121.393 89.3196L122.648 88.4338L123.281 89.1127L119.405 92.5557L118.772 91.8768L119.914 90.6551L113.566 83.5557L114 86.1166L114.332 94.7615L114.801 95.2944L116.202 94.244L116.835 94.9229L112.934 98.461L112.301 97.7821L113.322 96.6299L105.569 87.9317L104.339 88.7224L103.706 88.0436L107.418 84.4546Z" fill="#313131"/>
<path d="M117.098 76.4555C117.416 76.0313 117.733 75.607 118.025 75.2778C118.317 74.9486 118.583 74.7144 118.85 74.4803C120.036 73.474 121.19 72.9684 122.147 72.8174C123.105 72.6665 123.909 73.0857 124.611 73.8851C125.219 74.659 125.516 75.4516 125.382 76.3324C125.248 77.2131 124.949 77.9479 124.34 78.7014C125.234 78.0243 126.147 77.6578 127.028 77.792C127.934 77.8311 128.643 78.2249 129.251 78.9988C130.093 80.0392 130.408 81.1423 130.223 82.2131C130.038 83.2839 129.232 84.3921 127.804 85.5375C127.271 86.0058 126.669 86.3536 126.187 86.6319C125.705 86.9102 125.248 87.0935 124.912 87.2071C124.576 87.3208 124.361 87.3649 124.335 87.4599L122.52 84.7326L123.294 84.1251L125.225 85.6611C125.871 85.5288 126.689 85.1368 127.489 84.4343C128.142 83.8964 128.511 83.2821 128.473 82.661C128.461 81.9448 128.234 81.2728 127.532 80.4734C127.089 79.8454 126.474 79.4771 125.784 79.3939C125.093 79.3107 124.3 79.6076 123.406 80.2846L122.366 81.1263L121.663 80.3269L122.463 79.6244C122.849 79.3207 123.167 78.8964 123.389 78.4467C123.612 77.997 123.739 77.5219 123.676 76.9958C123.613 76.4697 123.335 75.9877 122.962 75.4802C122.424 74.8268 121.905 74.4839 121.284 74.5212C120.662 74.5585 120.085 74.8113 119.457 75.2542C119.045 75.653 118.753 75.9822 118.461 76.3114C118.169 76.6406 118.188 76.9512 118.232 77.1667L119.041 78.7077L118.121 79.4798L116.153 77.3226C116.394 77.1835 116.686 76.8543 117.098 76.4555Z" fill="#313131"/>
<path d="M130.285 67.155L128.865 67.8948L128.352 67.1464L130.382 65.6531C130.744 65.4444 131.156 65.0456 131.664 64.6723C132.076 64.2735 132.463 63.9698 132.704 63.8307C134.106 62.7803 135.26 62.2747 136.166 62.3138C137.072 62.3529 137.877 62.7721 138.484 63.5461C138.997 64.2945 139.198 65.0616 139.185 65.8728C139.171 66.684 138.777 67.3933 138.194 68.0517C139.113 67.2797 140.096 67.0337 141.002 67.0728C141.909 67.1119 142.687 67.6262 143.2 68.3746C143.946 69.3895 144.167 70.4672 143.956 71.6331C143.746 72.7989 142.724 73.9511 141.056 75.2357C140.669 75.5394 140.307 75.7481 139.946 75.9568C139.102 76.4438 138.69 76.8426 138.475 76.8867L136.445 78.38L135.932 77.6315L137.024 76.5998L130.285 67.155ZM135.689 69.4177L136.558 68.8356C137.306 68.3232 137.674 67.7089 137.732 67.1132C137.79 66.5176 137.588 65.7505 137.075 65.002C136.563 64.2536 136.044 63.9107 135.448 63.853C134.852 63.7952 134.06 64.0921 133.286 64.6996C132.899 65.0034 132.537 65.2121 132.246 65.5413L131.979 65.7754L135.035 69.9556C134.94 69.9301 135.302 69.7214 135.689 69.4177ZM140.474 74.3667C141.489 73.6201 142.098 72.8667 142.207 72.0809C142.315 71.2952 142.114 70.5281 141.601 69.7797C140.994 69.0057 140.405 68.5424 139.809 68.4846C139.118 68.4014 138.421 68.7238 137.526 69.4009C136.512 70.1475 135.884 70.5903 135.617 70.8245L138.882 75.3662C139.097 75.3221 139.605 74.9488 140.474 74.3667Z" fill="#313131"/>
<path d="M142.846 56.77L144.584 55.606L155.519 63.8326L156.578 63.3015L157.091 64.05L152.987 66.8209L152.475 66.0725L153.661 65.0662L151.401 63.2383L146.815 66.2875L147.604 69.0454L149.024 68.3055L149.537 69.054L145.82 71.5212L145.308 70.7728L146.132 69.9752L142.846 56.77ZM145.512 58.6048L144.17 57.5321L144.738 59.2123L146.474 65.2795L150.432 62.6731L145.512 58.6048Z" fill="#313131"/>
<path d="M159.419 61.822C158.298 61.827 157.278 61.4518 156.214 60.8611C155.27 60.2009 154.403 59.2556 153.612 58.0251C152.917 56.8201 152.532 55.5965 152.432 54.4493C152.331 53.3021 152.663 52.0666 153.228 51.0976C153.818 50.0336 154.643 49.2361 155.753 48.5149C156.597 48.0279 157.63 47.5919 158.974 47.1372L159.551 46.8844L161.101 49.8459L160.016 50.472L158.351 48.7018C158.161 48.6509 157.825 48.7646 157.394 48.8528C156.963 48.941 156.481 49.2193 155.999 49.4976C155.276 49.915 154.813 50.5038 154.54 51.1436C154.241 51.8784 154.132 52.6641 154.283 53.6213C154.434 54.5785 154.87 55.612 155.522 56.6014C156.173 57.5909 156.85 58.4853 157.604 59.0946C158.357 59.7039 159.162 60.1232 160.017 60.3523C160.872 60.5815 161.639 60.3796 162.483 59.8927C163.085 59.5448 163.472 59.2411 163.644 58.9814C163.91 58.7473 164.107 58.3926 164.183 58.1075L163.907 56.0981L164.966 55.567L165.926 58.0652C165.685 58.2043 165.419 58.4385 165.101 58.8628C164.81 59.192 164.518 59.5212 164.131 59.8249C163.839 60.1541 163.357 60.4324 162.875 60.7107C161.739 61.5269 160.541 61.817 159.419 61.822Z" fill="#313131"/>
<path d="M169.169 44.063C169.259 42.9667 169.539 41.9213 170.079 41.0474C170.618 40.1734 171.297 39.5405 172.261 38.9839C173.346 38.3578 174.423 38.1372 175.425 38.2018C176.426 38.2664 177.446 38.6415 178.269 39.3714C179.092 40.1012 179.864 41.021 180.585 42.131C181.35 43.4565 181.71 44.7751 181.785 46.0174C181.859 47.2596 181.674 48.3305 181.109 49.2994C180.544 50.2684 179.839 50.9964 178.875 51.553C177.791 52.1791 176.713 52.3996 175.617 52.3096C174.616 52.245 173.596 51.8699 172.747 51.2351C171.899 50.6003 171.032 49.655 170.431 48.4755L167.806 49.9109L170.398 54.6799L171.888 54.0606L172.28 54.8787L167.752 57.3322L167.36 56.5142L168.616 55.6284L163.108 45.3929L161.644 45.9172L161.157 45.0737L165.564 42.6897L166.051 43.5332L164.795 44.419L167.179 48.8265L169.9 47.4164C169.369 46.3574 169.148 45.2798 169.169 44.063ZM170.932 42.8039C170.791 44.0903 171.195 45.6244 172.239 47.4319C173.143 48.9984 174.054 50.1593 175.213 50.7754C176.372 51.3915 177.374 51.4561 178.553 50.8554C179.612 50.3244 180.177 49.3554 180.198 48.1386C180.218 46.9218 179.814 45.3876 178.866 43.6056C177.961 42.0391 177.05 40.8782 175.986 40.2876C174.922 39.6969 173.826 39.6069 172.767 40.138C171.708 40.6691 171.073 41.5175 170.932 42.8039Z" fill="#313131"/>
<path d="M189.892 39.3283C190.601 39.722 191.475 40.2618 192.634 40.8779C193.413 41.3922 193.933 41.7351 194.382 41.9574C194.832 42.1798 195.022 42.2307 195.238 42.1866L195.979 42.0797L196.371 42.8978L194.279 43.8649C194.038 44.004 193.658 43.9022 193.113 43.6544C192.568 43.4066 191.884 42.9177 190.941 42.2575C189.928 41.4768 189.054 40.937 188.439 40.5687C187.825 40.2004 187.324 40.1681 186.988 40.2818L185.929 40.8129L188.211 45.6005L189.771 45.1017L190.163 45.9197L185.496 48.1323L185.104 47.3143L186.429 46.549L181.499 36.0607L180.06 36.4899L179.668 35.6719L184.214 33.5289L184.606 34.3469L183.255 35.2072L185.512 40.0899L186.932 39.3501L188.068 32.83L186.509 33.3288L186.117 32.5108L190.302 30.5765L190.694 31.3945L189.463 32.1853L188.086 38.8444C188.492 38.8513 189.157 39.0295 189.892 39.3283Z" fill="#313131"/>
<path d="M199.098 41.082C198.028 40.8969 197.154 40.3571 196.356 39.5323C195.559 38.7075 194.812 37.6926 194.262 36.323C193.713 34.9534 193.422 33.7552 193.538 32.5639C193.653 31.3726 193.934 30.3272 194.594 29.3837C195.254 28.4402 196.148 27.7631 197.182 27.3271C199.008 26.5941 200.535 26.5959 201.98 27.2884C203.424 27.981 204.569 29.4083 205.372 31.3549C205.921 32.7245 206.186 34.0177 206.071 35.209C205.955 36.4003 205.649 37.5407 204.989 38.4843C204.329 39.4278 203.435 40.1048 202.401 40.5409C201.222 41.1415 200.169 41.267 199.098 41.082ZM195.498 30.9502C195.262 32.2111 195.571 33.7198 196.278 35.6409C197.037 37.372 197.923 38.6279 198.961 39.3136C199.974 40.0944 201.071 40.1844 202.225 39.6788C203.353 39.2682 204.013 38.3246 204.249 37.0637C204.485 35.8028 204.202 34.1991 203.374 32.3475C202.616 30.6164 201.73 29.3605 200.691 28.6748C199.653 27.9891 198.582 27.804 197.428 28.3097C196.369 28.8408 195.734 29.6893 195.498 30.9502Z" fill="#313131"/>
<path d="M206.457 25.0247L204.948 25.3335L204.677 24.4459L207.054 23.5551C207.485 23.4669 207.967 23.1886 208.544 22.9358C209.121 22.683 209.483 22.4743 209.793 22.4557C211.379 21.8618 212.646 21.6922 213.502 21.9214C214.357 22.1506 215.015 22.7344 215.356 23.7425C215.653 24.5351 215.735 25.3717 215.436 26.1065C215.137 26.8414 214.648 27.5252 213.925 27.9426C215.054 27.5321 215.986 27.4761 216.841 27.7053C217.696 27.9345 218.329 28.6134 218.67 29.6215C219.081 30.75 219.06 31.9668 218.495 32.9358C217.904 33.9998 216.649 34.8856 214.727 35.5931C214.271 35.7764 213.935 35.89 213.504 35.9782C212.616 36.2497 212.039 36.5025 211.824 36.5466L209.446 37.4374L209.149 36.6448L210.57 35.905L206.457 25.0247ZM211.072 28.7061L212.081 28.3651C212.873 28.0681 213.406 27.5998 213.679 26.96C213.953 26.3203 213.941 25.6041 213.549 24.7861C213.252 23.9935 212.784 23.4606 212.239 23.2128C211.694 22.965 210.857 23.0463 209.849 23.3874C209.393 23.5706 209.031 23.7793 208.575 23.9626L208.213 24.1713L210.064 29.0471C210.185 28.9775 210.521 28.8639 211.072 28.7061ZM214.24 34.7496C215.369 34.339 216.143 33.7315 216.537 33.0222C216.93 32.3129 216.919 31.5967 216.578 30.5886C216.211 29.6756 215.743 29.1426 215.198 28.8948C214.558 28.6215 213.722 28.7029 212.688 29.139C211.464 29.5241 210.767 29.8465 210.431 29.9602L212.396 35.172C212.655 35.3435 213.327 35.1161 214.24 34.7496Z" fill="#313131"/>
<path d="M233.981 14.6768L234.252 15.5644L232.832 16.3042L236.177 27.3863L237.902 27.0335L238.173 27.9211L233.184 29.4361L232.912 28.5485L234.307 27.9038L230.892 16.7011L225.135 18.418L228.551 29.6207L230.275 29.2678L230.546 30.1554L225.557 31.6705L225.285 30.7829L226.68 30.1381L223.335 19.056L221.731 19.3393L221.459 18.4517L233.981 14.6768Z" fill="#313131"/>
<path d="M241.781 26.2396C240.761 25.8645 239.913 25.2297 239.236 24.3353C238.559 23.4409 238.053 22.2868 237.719 20.8731C237.385 19.4595 237.31 18.2172 237.546 16.9563C237.757 15.7904 238.322 14.8214 239.052 13.9984C239.781 13.1754 240.745 12.6189 241.943 12.3288C243.814 11.8113 245.385 12.0287 246.753 13.0063C248.026 13.9585 248.956 15.4299 249.492 17.6107C249.826 19.0244 249.875 20.3617 249.664 21.5275C249.428 22.7884 248.863 23.7574 248.038 24.555C247.213 25.3525 246.25 25.9091 245.146 26.2246C243.828 26.5843 242.801 26.6148 241.781 26.2396ZM239.645 15.5835C239.219 16.7935 239.313 18.3463 239.804 20.3116C240.227 22.1563 240.992 23.4818 241.885 24.3321C242.777 25.1824 243.918 25.488 245.021 25.1724C246.219 24.8824 246.923 24.1544 247.375 22.8494C247.801 21.6394 247.733 19.9915 247.241 18.0263C246.819 16.1815 246.054 14.8561 245.161 14.0057C244.268 13.1554 243.223 12.8753 242.025 13.1654C240.871 13.6711 240.046 14.4686 239.645 15.5835Z" fill="#313131"/>
<path d="M255.708 18.3598C255.845 20.1281 255.704 21.4145 255.329 22.4344C255.202 22.9096 254.884 23.3338 254.618 23.568C254.352 23.8021 253.99 24.0108 253.559 24.0991C253.007 24.2568 252.507 24.2246 252.291 24.2687L251.862 22.8295C252.173 22.8109 252.604 22.7227 253.25 22.5903C253.466 22.5462 253.681 22.5021 253.827 22.3375C253.973 22.1729 254.119 22.0083 254.196 21.7232C254.844 20.0635 254.632 17.0529 253.706 12.5268L253.372 11.1131L251.172 11.3386L250.996 10.4765L261.557 8.31531L261.733 9.17743L260.053 9.74581L262.391 21.169L264.28 20.9621L264.456 21.8242L258.852 22.971L258.676 22.1088L260.571 21.4964L258.234 10.0732L254.57 10.823L254.948 12.4522C255.269 14.6771 255.545 16.6864 255.708 18.3598Z" fill="#313131"/>
<path d="M265.321 8.71297L263.794 8.71114L263.643 7.75398L273.024 6.19349L273.788 9.04633L272.735 9.17182L271.882 7.41528L267.337 8.03092L268.18 13.2478L271.293 12.6558L271.294 11.1284L272.347 11.0029L273.039 15.2626L271.987 15.3881L271.488 13.8285L268.401 14.3254L269.262 19.8529L274.435 18.7943L275.002 16.298L276.168 16.5085L276.208 19.7788L265.99 21.4207L265.814 20.5586L267.348 20.1548L265.321 8.71297Z" fill="#313131"/>
<path d="M280.731 6.32295L277.549 6.79445L277.411 10.73L276.143 10.8995L275.845 5.93051L287.419 4.55009L288.243 9.45638L287.096 9.55642L285.992 5.69548L282.765 5.95147L284.215 17.6461L286.89 17.5479L286.946 18.4796L279.891 19.3394L279.835 18.4077L282.206 17.9225L280.731 6.32295Z" fill="#313131"/>
<path d="M296.011 11.6394L295.079 11.6953C294.812 11.9295 294.495 12.3537 294.247 12.8985C293.974 13.5382 293.675 14.273 293.42 15.2234C293.071 16.1482 292.893 16.8135 292.67 17.2632C292.448 17.7129 292.276 17.9725 292.061 18.0166L289.551 18.2608L289.495 17.3291L290.167 17.1018C290.383 17.0576 290.528 16.893 290.725 16.5384C290.922 16.1837 291.17 15.639 291.469 14.9041C291.793 14.0743 292.187 13.365 292.435 12.8202C292.778 12.301 293.095 11.8767 293.456 11.668C292.576 11.5339 291.866 11.1401 291.328 10.4867C290.79 9.83325 290.494 9.04069 290.438 8.109C290.319 6.65121 290.72 5.53627 291.493 4.92878C292.388 4.25173 293.612 3.86661 295.259 3.79887C295.57 3.78023 296.096 3.71747 296.692 3.77522C297.313 3.73794 297.718 3.74476 298.029 3.72612L300.729 3.5329L300.785 4.46459L299.276 4.77332L300.181 16.2201L301.899 16.2729L301.955 17.2046L296.434 17.6606L296.378 16.7289L298.198 16.4015L297.804 11.407L296.011 11.6394ZM296.773 4.61188C296.177 4.55413 295.746 4.64234 295.246 4.61006C294.314 4.66598 293.521 4.9629 293.109 5.36168C292.576 5.83002 292.372 6.59029 292.498 7.64249C292.528 8.66922 292.946 9.3922 293.414 9.92512C294.003 10.3885 294.763 10.5922 295.695 10.5363C296.722 10.5058 297.368 10.3735 297.679 10.3548L297.274 4.64417L296.773 4.61188Z" fill="#313131"/>
<path d="M307.497 4.12422L304.271 4.38021L303.728 8.30888L302.485 8.38343L302.618 3.32618L314.248 2.87745L314.641 7.87196L313.52 7.87697L312.726 3.99738L309.455 4.03784L309.853 15.858L312.477 15.9498L312.533 16.8815L305.441 17.1202L305.385 16.1885L307.8 15.9189L307.497 4.12422Z" fill="#313131"/>
<path d="M323.333 16.1087C322.39 15.4485 321.687 14.6491 321.156 13.5901C320.625 12.5311 320.455 11.2634 320.432 9.83103C320.503 8.42416 320.834 7.18872 321.425 6.12471C322.015 5.0607 322.84 4.26315 323.899 3.73206C324.958 3.20096 326.061 2.88541 327.373 2.93134C328.279 2.97045 329.471 3.08596 330.801 3.44245L331.371 3.59523L331.076 6.97917L329.859 6.9587L329.469 4.61332C329.304 4.46735 329.045 4.29592 328.57 4.1686C328.094 4.04128 327.594 4.00899 326.998 3.95124C326.187 3.93759 325.515 4.16495 324.887 4.60783C324.259 5.05071 323.77 5.73459 323.351 6.53896C323.001 7.46384 322.747 8.41417 322.701 9.726C322.68 10.9428 322.806 11.995 323.077 12.8826C323.348 13.7702 323.835 14.6136 324.494 15.1975C325.152 15.7813 325.887 16.0801 326.793 16.1192C327.509 16.1074 327.915 16.1142 328.346 16.026C328.682 15.9123 329.018 15.7987 329.285 15.5645L330.079 13.7402L331.245 13.9507L330.747 16.5676C330.437 16.5862 330.101 16.6999 329.575 16.7626C329.144 16.8509 328.687 17.0341 328.282 17.0273C327.851 17.1155 327.35 17.0832 326.729 17.1205C325.417 17.0745 324.277 16.769 323.333 16.1087Z" fill="#313131"/>
<path d="M338.939 3.48351L338.899 4.38974L337.036 4.50158L336.353 13.8931L338.06 11.7023L343.892 5.5238L343.924 5.02317L342.283 4.68531L342.322 3.77907L347.424 4.12742L347.385 5.03366L345.927 5.15232L345.159 16.7619L346.705 17.0743L346.666 17.9805L341.469 17.6067L341.508 16.7005L343.156 16.6327L343.77 7.12074L342.208 9.14691L336.256 15.395L336.173 16.0857L337.934 16.354L337.895 17.2602L332.604 16.8609L332.643 15.9547L334.196 15.8615L334.964 4.25193L333.513 3.965L333.552 3.05877L338.939 3.48351Z" fill="#313131"/>
<path d="M359.217 5.352L358.824 10.2378L357.538 10.0969L357.435 6.3005L353.316 5.70619L351.996 17.4735L355.209 18.0288L355.075 18.9095L347.762 18.0706L347.896 17.1898L349.924 17.2239L351.168 5.74164L349.267 5.23235L349.401 4.35159L359.217 5.352Z" fill="#313131"/>
<path d="M362.365 6.90857L360.965 6.43157L361.099 5.55081L366.098 6.27928L365.964 7.16006L364.342 7.13275L363.613 12.1323L370.064 13.1477L370.792 8.14816L369.297 7.64569L369.431 6.76493L374.431 7.4934L374.297 8.37417L372.769 8.37234L371.025 19.8223L372.451 20.2043L372.317 21.085L367.317 20.3566L367.451 19.4758L368.979 19.4776L369.809 14.098L363.359 13.0826L362.528 18.4622L364.144 18.8951L364.01 19.7759L358.915 19.022L359.049 18.1412L360.577 18.143L362.365 6.90857Z" fill="#313131"/>
<path d="M381.185 8.89599L383.206 9.33572L385.078 22.8751L386.193 23.2757L386.059 24.1565L381.231 23.1684L381.365 22.2876L382.962 22.4099L382.63 19.4689L377.327 18.3534L375.923 20.9311L377.418 21.4336L377.284 22.3144L372.931 21.4536L373.065 20.5728L374.282 20.5933L381.185 8.89599ZM381.777 12.0085L381.614 10.3352L380.896 11.8743L377.892 17.3844L382.53 18.3216L381.777 12.0085Z" fill="#313131"/>
<path d="M391.875 20.3161C391.253 21.8808 390.516 23.1094 389.812 23.8374C389.399 24.2362 389.038 24.4449 388.702 24.5585C388.366 24.6722 387.96 24.6654 387.485 24.5381C386.915 24.3853 386.439 24.258 386.18 24.0865L386.372 22.6101C386.657 22.6865 387.132 22.8138 387.702 22.9666C387.892 23.0175 388.108 22.9734 388.323 22.9293C388.539 22.8852 388.685 22.7206 388.951 22.4864C390.189 21.2901 391.453 18.4714 392.555 13.9793L392.937 12.5538L390.941 12.0191L391.196 11.0688L401.7 13.6798L401.446 14.6301L399.659 14.4568L396.844 25.7217L398.599 26.3956L398.37 27.2509L392.737 25.8436L392.966 24.9883L394.918 25.3075L397.733 14.0426L394.001 13.1445L393.568 14.7601C393.128 16.7813 392.498 18.7515 391.875 20.3161Z" fill="#313131"/>
<path d="M407.947 21.1595C409.347 21.6365 410.385 22.3222 410.967 23.1911C411.549 24.0601 411.649 25.2073 411.223 26.4173C410.746 27.8173 409.991 28.7354 408.957 29.1715C407.803 29.6771 406.587 29.6566 405.161 29.2746C404.971 29.2237 404.781 29.1728 404.591 29.1219C404.401 29.0709 404.211 29.02 403.951 28.8486C403.311 28.5753 402.646 28.397 402.101 28.1492L399.656 27.3921L399.885 26.5368L401.431 26.8492L404.816 15.7371L403.467 15.07L403.696 14.2147L408.777 15.7799L408.548 16.6352L406.691 16.3414L405.381 20.472L407.947 21.1595ZM404.111 27.8728C404.301 27.9237 404.655 28.1206 405.036 28.2224C406.081 28.5025 406.892 28.5162 407.615 28.0988C408.338 27.6814 408.827 26.9975 409.107 25.9521C409.387 24.9068 409.375 24.1906 408.958 23.4676C408.61 22.8651 407.926 22.3763 406.906 22.0012L405.101 21.5173L403.281 27.5486C403.661 27.6504 403.921 27.8218 404.111 27.8728ZM420.744 19.394L420.515 20.2493L418.754 19.981L415.369 31.0931L417.003 31.8365L416.774 32.6918L411.503 31.0758L411.732 30.2205L413.468 30.5838L416.853 19.4717L415.219 18.7282L415.448 17.8729L420.744 19.394Z" fill="#313131"/>
<path d="M428.434 23.3894L427.11 22.6273L427.434 21.7974L432.154 23.5713L431.829 24.4011L430.283 24.0887L428.509 28.8081L434.698 31.1794L436.472 26.46L435.149 25.6979L435.473 24.8681L440.192 26.642L439.868 27.4718L438.417 27.1849L434.272 38.0933L435.621 38.7603L435.297 39.5902L430.577 37.8163L430.902 36.9865L432.422 37.3939L434.393 32.3198L428.204 29.9485L426.233 35.0226L427.652 35.8101L427.328 36.64L422.539 34.7456L422.863 33.9158L424.383 34.3232L428.434 23.3894Z" fill="#313131"/>
<path d="M446.425 29.2289L448.345 30.0487L447.327 43.7304L448.27 44.3906L447.946 45.2205L443.398 43.187L443.722 42.3572L445.218 42.8596L445.601 39.9068L440.578 37.746L438.681 39.8858L440.099 40.6734L439.775 41.5032L435.677 39.6921L436.001 38.8622L437.141 39.1678L446.425 29.2289ZM446.371 32.4737L446.614 30.8072L445.541 32.1495L441.428 36.8534L445.812 38.7409L446.371 32.4737Z" fill="#313131"/>
<path d="M460.137 36.9773L458.415 35.8028L458.834 34.9984L463.21 37.2915L461.704 45.9532L461.163 48.3545L462.768 46.5439L468.936 40.2517L473.313 42.5448L472.893 43.3492L470.948 42.6244L466.898 53.5582L468.266 54.5359L467.847 55.3402L463.116 52.8502L463.535 52.0459L465.1 52.6688L468.214 44.8456L469.537 41.4312L467.57 43.4505L460.336 50.6794L459.272 50.0888L460.766 40.7109L461.423 37.1183L459.487 40.1643L454.928 47.295L456.486 48.3236L456.066 49.128L451.785 46.8603L452.204 46.0559L453.674 46.6534L460.137 36.9773Z" fill="#313131"/>
<path d="M479.506 46.038L481.254 47.1174L478.665 60.5818L479.609 61.242L479.189 62.0464L474.959 59.5887L475.378 58.7843L476.848 59.3818L477.491 56.6003L472.836 53.8252L470.679 55.7936L471.952 56.7458L471.533 57.5502L467.752 55.3148L468.171 54.5104L469.286 54.911L479.506 46.038ZM479.072 49.1809L479.505 47.5653L478.267 48.7616L473.566 53.0022L477.702 55.4345L479.072 49.1809Z" fill="#313131"/>
<path d="M487.776 52.4296L486.719 51.4333L487.233 50.6544L489.31 52.0258C489.665 52.2227 490.089 52.5401 490.443 52.737C491.058 53.1053 491.603 53.3531 492.122 53.696C493.585 54.6991 494.547 55.6699 494.793 56.6525C495.039 57.6351 494.854 58.706 494.168 59.7445C493.628 60.6185 492.975 61.1564 492.157 61.5483C491.339 61.9403 490.502 62.0217 489.621 61.8875C488.741 61.7534 487.816 61.4037 486.942 60.864C486.587 60.6671 486.327 60.4957 485.998 60.2037C485.644 60.0068 485.479 59.8609 485.409 59.7404L483.155 63.2107L485.182 64.7722L484.667 65.5511L479.544 62.2431L480.058 61.4641L481.502 62.1567L487.776 52.4296ZM487.456 60.0851C488.33 60.6248 489.09 60.8285 489.952 60.6521C490.814 60.4757 491.588 59.8682 492.325 58.6396C492.865 57.7656 493.094 56.9103 492.867 56.2383C492.639 55.5662 492.101 54.9128 491.158 54.2526C490.803 54.0557 490.448 53.8588 489.999 53.6364C489.739 53.465 489.549 53.4141 489.549 53.4141L485.924 58.9615C486.253 59.2534 486.677 59.5708 487.456 60.0851Z" fill="#313131"/>
<path d="M492.185 69.8063C491.749 68.7728 491.649 67.6256 491.834 66.5547C492.019 65.4839 492.566 64.2043 493.397 63.0012C494.204 61.8931 495.149 61.026 496.208 60.4949C497.267 59.9638 498.44 59.7687 499.631 59.8842C500.822 59.9997 501.937 60.4003 502.95 61.1811C503.729 61.6953 504.622 62.5456 505.489 63.491L505.983 63.9289L503.863 66.5184L502.824 65.8327L503.816 63.6538C503.771 63.4382 503.537 63.1718 503.329 62.8103C503.12 62.4488 502.601 62.1059 502.081 61.7631C501.397 61.2743 500.732 61.096 499.921 61.0824C499.11 61.0687 498.317 61.3656 497.569 61.8781C496.82 62.3905 495.996 63.1881 495.335 64.1316C494.675 65.0751 494.205 66.0696 493.855 66.9944C493.601 67.9448 493.466 68.8255 493.738 69.7131C494.009 70.6007 494.452 71.2287 495.231 71.7429C495.75 72.0858 496.175 72.4032 496.555 72.505C496.935 72.6069 497.22 72.6833 497.531 72.6647L499.243 71.5957L500.136 72.446L498.194 74.3703C497.934 74.1988 497.554 74.097 497.104 73.8746C496.629 73.7473 496.275 73.5504 495.799 73.4231C495.445 73.2262 494.995 73.0039 494.476 72.661C493.488 71.7852 492.621 70.8399 492.185 69.8063Z" fill="#313131"/>
<path d="M519.445 73.7493L518.835 74.5028L517.278 73.4742L511.356 80.749L514.019 79.9347L522.304 78.2841L522.621 77.8599L521.52 76.6481L522.129 75.8946L526.131 79.2077L525.521 79.9611L524.198 79.199L516.791 88.2149L517.918 89.3317L517.334 89.9901L513.332 86.6771L513.916 86.0187L515.309 86.9013L521.352 79.5569L518.904 80.3271L510.404 82.0218L509.966 82.5156L511.162 83.7528L510.578 84.4112L506.482 81.0728L507.066 80.4143L508.364 81.2715L515.771 72.2556L514.739 71.1643L515.348 70.4108L519.445 73.7493Z" fill="#313131"/>
<path d="M528.922 82.0944C529.467 82.3423 529.796 82.6342 530.151 82.8311C530.505 83.028 530.835 83.3199 531.094 83.4913C532.247 84.5131 532.993 85.528 533.239 86.5106C533.485 87.4932 533.256 88.3485 532.552 89.0765C531.847 89.8045 531.124 90.2219 530.218 90.1828C529.381 90.2642 528.526 90.035 527.747 89.5207C528.545 90.3456 529.032 91.189 529.113 92.0257C529.195 92.8624 528.87 93.6922 528.286 94.3506C527.411 95.3382 526.352 95.8693 525.255 95.7793C524.134 95.7843 522.975 95.1681 521.563 93.975C520.974 93.5116 520.6 93.0042 520.227 92.4967C519.854 91.9893 519.645 91.6278 519.411 91.3613C519.272 91.1203 519.133 90.8793 519.063 90.7588L521.487 88.5562L522.145 89.1401L520.964 91.2681C521.191 91.9402 521.729 92.5936 522.457 93.2979C523.116 93.8818 523.66 94.1296 524.402 94.0227C525.048 93.8904 525.746 93.5681 526.355 92.8146C526.914 92.2512 527.092 91.586 527.175 90.8953C527.258 90.2046 526.746 89.4561 525.923 88.7263L524.935 87.8506L525.64 87.1226L526.463 87.8524C526.887 88.1698 527.311 88.4872 527.786 88.6145C528.261 88.7418 528.762 88.7741 529.314 88.6163C529.865 88.4585 530.252 88.1548 530.69 87.661C531.274 87.0026 531.522 86.4578 531.389 85.8112C531.352 85.1901 530.979 84.6826 530.32 84.0988C529.922 83.6864 529.567 83.4895 529.117 83.2671C528.763 83.0702 528.452 83.0889 528.236 83.133L526.835 84.1834L525.917 83.4281L527.744 81.1677C528.048 81.5547 528.403 81.7516 528.922 82.0944Z" fill="#313131"/>
<path d="M540.062 93.7373L539.176 92.4814L539.855 91.8484L541.615 93.6441C541.944 93.936 542.343 94.3484 542.837 94.7863C543.331 95.2242 543.66 95.5161 543.824 95.6621C545.021 96.8993 545.767 97.9142 545.823 98.8459C546 99.7081 545.676 100.538 544.971 101.266C544.292 101.899 543.595 102.221 542.853 102.328C542.112 102.435 541.256 102.206 540.477 101.691C541.37 102.542 541.857 103.385 541.913 104.317C541.969 105.249 541.67 105.983 540.966 106.711C540.115 107.604 538.987 108.015 537.89 107.925C536.699 107.809 535.375 107.047 533.92 105.638C533.59 105.346 533.287 104.959 533.052 104.693C532.419 104.014 532.021 103.602 531.856 103.456L530.096 101.66L530.775 101.027L532.048 101.979L540.062 93.7373ZM534.529 104.885C535.421 105.735 536.2 106.249 537.012 106.263C537.823 106.277 538.52 105.954 539.199 105.321C539.878 104.688 540.177 103.954 540.139 103.333C540.102 102.711 539.685 101.988 538.887 101.164C537.995 100.313 537.431 99.7548 537.197 99.4884L533.288 103.432C533.332 103.648 533.826 104.085 534.529 104.885ZM538.75 99.3952L539.478 100.1C540.136 100.683 540.751 101.052 541.372 101.014C541.993 100.977 542.69 100.655 543.274 99.9963C543.858 99.3379 544.201 98.8186 544.164 98.1975C544.126 97.5764 543.709 96.8534 542.981 96.1491C542.652 95.8571 542.323 95.5652 541.898 95.2478L541.569 94.9559L537.927 98.6654C538.117 98.7163 538.351 98.9828 538.75 99.3952Z" fill="#313131"/>
<path d="M552.363 104.469L553.794 105.973L547.41 118.013L548.062 119.002L547.383 119.635L544.079 116L544.758 115.367L545.91 116.389L547.409 113.836L543.706 109.789L541.037 111.009L542.017 112.29L541.339 112.923L538.338 109.674L539.017 109.042L539.935 109.797L552.363 104.469ZM550.883 107.332L551.791 105.844L550.25 106.653L544.55 109.302L547.784 112.817L550.883 107.332Z" fill="#313131"/>
<path d="M549.808 121.609C549.613 120.436 549.798 119.366 550.294 118.276C550.789 117.187 551.57 116.174 552.731 115.262C553.797 114.326 554.951 113.82 556.149 113.53C557.347 113.24 558.538 113.355 559.653 113.756C560.768 114.157 561.712 114.817 562.553 115.857C563.161 116.631 563.812 117.621 564.413 118.8L564.666 119.377L561.983 121.408L561.211 120.488L562.747 118.557C562.703 118.342 562.684 118.031 562.475 117.67C562.266 117.308 561.988 116.826 561.589 116.414C561.052 115.76 560.437 115.392 559.677 115.188C558.917 114.985 558.08 115.066 557.192 115.337C556.305 115.609 555.341 116.165 554.421 116.938C553.501 117.71 552.771 118.533 552.257 119.312C551.717 120.185 551.488 121.041 551.474 121.852C551.461 122.663 551.758 123.456 552.365 124.23C552.834 124.763 553.163 125.054 553.517 125.251C553.872 125.448 554.132 125.62 554.442 125.601L556.338 124.989L556.99 125.978L554.675 127.395C554.51 127.249 554.181 126.957 553.757 126.64C553.307 126.417 552.978 126.125 552.648 125.833C552.319 125.541 551.895 125.224 551.522 124.717C550.534 123.841 550.003 122.782 549.808 121.609Z" fill="#313131"/>
<path d="M568.831 128.54C569.979 128.44 570.954 128.6 571.879 128.949C572.804 129.299 573.627 130.029 574.235 130.803C574.981 131.818 575.348 132.731 575.473 133.783C575.504 134.81 575.344 135.785 574.779 136.754C574.214 137.723 573.458 138.641 572.323 139.458C571.162 140.369 569.888 140.944 568.689 141.234C567.491 141.524 566.395 141.434 565.28 141.034C564.165 140.633 563.412 140.024 562.735 139.129C561.988 138.114 561.552 137.081 561.426 136.029C561.301 134.976 561.556 134.026 562.026 133.032C562.591 132.063 563.346 131.145 564.387 130.303L562.59 127.886L558.238 131.202L559.073 132.648L558.324 133.16L555.243 129.075L555.991 128.563L557.118 129.679L566.329 122.675L565.564 121.349L566.337 120.742L569.349 124.706L568.575 125.314L567.449 124.197L563.484 127.209L565.281 129.626C566.651 129.076 567.754 128.761 568.831 128.54ZM570.452 130.095C569.21 130.169 567.72 130.789 566.051 132.073C564.624 133.218 563.628 134.276 563.202 135.486C562.776 136.696 562.901 137.748 563.648 138.763C564.42 139.683 565.319 140.127 566.587 139.958C567.829 139.883 569.25 139.143 570.893 137.954C572.32 136.808 573.316 135.751 573.742 134.541C574.168 133.331 574.043 132.279 573.366 131.385C572.689 130.49 571.694 130.02 570.452 130.095Z" fill="#313131"/>
<path d="M576.78 148.291C576.577 149.051 576.107 150.046 575.586 151.23C575.166 152.035 574.988 152.7 574.791 153.055C574.689 153.435 574.587 153.815 574.657 153.935L574.884 154.608L574.136 155.12L572.807 153.236C572.668 152.995 572.675 152.59 572.923 152.045C573.171 151.5 573.495 150.67 573.965 149.676C574.581 148.517 574.931 147.592 575.204 146.952C575.477 146.312 575.415 145.786 575.301 145.45L574.649 144.461L570.279 147.466L570.993 148.981L570.245 149.494L567.404 145.27L568.153 144.757L569.159 145.944L578.743 139.446L578.098 138.051L578.847 137.539L581.618 141.643L580.869 142.155L579.863 140.969L575.398 143.948L576.258 145.299L582.843 145.434L582.103 144.013L582.851 143.501L585.388 147.338L584.64 147.851L583.608 146.759L576.859 146.479C577.042 146.935 576.984 147.531 576.78 148.291Z" fill="#313131"/>
<path d="M576.408 157.664C576.473 156.663 576.753 155.617 577.508 154.699C578.168 153.756 579.114 152.889 580.319 152.193C581.549 151.402 582.773 151.017 583.92 150.917C585.162 150.842 586.233 151.028 587.227 151.498C588.222 151.968 589.045 152.698 589.671 153.782C590.645 155.469 590.954 156.978 590.426 158.568C589.923 160.063 588.756 161.38 586.923 162.518C585.692 163.309 584.469 163.694 583.201 163.864C581.959 163.938 580.888 163.753 579.798 163.258C578.804 162.788 578.006 161.963 577.355 160.973C576.659 159.768 576.439 158.691 576.408 157.664ZM585.946 152.479C584.729 152.458 583.17 152.957 581.457 154.026C579.865 155.025 578.774 156.057 578.253 157.242C577.637 158.401 577.762 159.453 578.388 160.537C579.04 161.527 580.009 162.092 581.226 162.112C582.538 162.158 584.002 161.634 585.715 160.565C587.307 159.566 588.398 158.534 588.919 157.349C589.415 156.26 589.41 155.138 588.783 154.054C588.132 153.064 587.258 152.524 585.946 152.479Z" fill="#313131"/>
<path d="M593.438 162.533L592.913 161.068L593.757 160.581L595.009 162.75C595.218 163.111 595.496 163.593 595.869 164.101C596.243 164.608 596.451 164.97 596.591 165.211C597.4 166.752 597.811 167.88 597.651 168.856C597.491 169.832 597.028 170.421 596.159 171.003C595.436 171.42 594.574 171.597 593.788 171.488C593.002 171.379 592.293 170.986 591.686 170.212C592.312 171.296 592.488 172.158 592.329 173.134C592.194 174.015 591.611 174.673 590.767 175.16C589.683 175.786 588.535 175.886 587.42 175.486C586.306 175.085 585.274 173.994 584.23 172.186C584.022 171.825 583.838 171.368 583.63 171.007C583.143 170.163 582.89 169.586 582.82 169.466L581.568 167.297L582.386 166.905L583.272 168.161L593.438 162.533ZM584.979 171.674C585.605 172.758 586.238 173.437 586.998 173.641C587.758 173.845 588.5 173.738 589.343 173.251C590.187 172.764 590.65 172.175 590.803 171.605C590.956 171.035 590.779 170.173 590.223 169.209C589.597 168.124 589.179 167.401 589.04 167.16L584.151 169.822C584.239 170.253 584.492 170.83 584.979 171.674ZM590.561 167.568L591.022 168.506C591.44 169.229 592.029 169.692 592.599 169.845C593.264 170.023 593.911 169.891 594.754 169.404C595.477 168.987 595.915 168.493 596.068 167.923C596.22 167.353 596.019 166.585 595.462 165.621C595.253 165.26 594.95 164.873 594.766 164.416L594.558 164.055L590.004 166.604C590.143 166.845 590.282 167.086 590.561 167.568Z" fill="#313131"/>
<path d="M607.997 188.027L607.179 188.419L606.318 187.068L595.899 192.12L596.468 193.8L595.65 194.192L593.368 189.404L594.186 189.012L595.046 190.363L605.56 185.337L602.93 179.947L592.391 185.068L592.959 186.748L592.141 187.14L589.833 182.448L590.651 182.056L591.442 183.286L601.861 178.235L601.362 176.675L602.18 176.283L607.997 188.027Z" fill="#313131"/>
<path d="M597.693 197.591C597.878 196.52 598.418 195.646 599.147 194.823C599.972 194.026 600.987 193.279 602.262 192.704C603.536 192.129 604.829 191.864 606.021 191.98C607.212 192.095 608.257 192.375 609.201 193.035C610.144 193.696 610.821 194.59 611.258 195.624C611.991 197.45 612.084 199.003 611.296 200.421C610.604 201.865 609.176 203.011 607.23 203.813C605.86 204.363 604.567 204.628 603.376 204.512C602.184 204.397 601.044 204.091 600.1 203.431C599.157 202.771 598.48 201.876 597.949 200.817C597.633 199.714 597.438 198.541 597.693 197.591ZM607.85 193.896C606.589 193.66 605.08 193.969 603.134 194.771C601.403 195.53 600.147 196.415 599.461 197.454C598.775 198.492 598.59 199.563 599.096 200.717C599.602 201.871 600.45 202.506 601.711 202.742C602.972 202.978 604.576 202.695 606.427 201.867C608.158 201.108 609.414 200.223 610.1 199.184C610.786 198.145 610.876 197.049 610.465 195.921C609.959 194.767 609.111 194.132 607.85 193.896Z" fill="#313131"/>
<path d="M607.602 210.025C605.878 210.378 604.515 210.522 603.54 210.362C603.064 210.235 602.589 210.108 602.355 209.841C602.026 209.549 601.792 209.283 601.608 208.826C601.356 208.249 601.267 207.818 601.249 207.508L602.644 206.863C602.662 207.173 602.846 207.63 603.099 208.207C603.143 208.422 603.307 208.568 603.472 208.714C603.636 208.86 603.827 208.911 604.112 208.988C605.848 209.351 608.865 208.733 613.069 207.11L614.438 206.56L613.877 204.474L614.79 204.108L618.606 214.195L617.693 214.562L616.883 213.021L606.003 217.134L606.451 218.883L605.563 219.155L603.555 213.727L604.442 213.456L605.296 215.213L616.176 211.1L614.875 207.594L613.289 208.187C611.197 209.155 609.327 209.672 607.602 210.025Z" fill="#313131"/>
<path d="M618.684 218.087L618.375 216.578L619.263 216.307L622.237 225.354L619.593 226.479L619.252 225.471L620.774 224.351L619.417 219.913L614.402 221.523L615.45 224.452L617.028 224.264L617.37 225.272L613.242 226.611L612.901 225.603L614.322 224.863L613.394 221.864L608.138 223.613L609.963 228.584L612.561 228.771L612.566 229.893L609.289 230.339L606.018 220.499L606.906 220.227L607.551 221.623L618.684 218.087Z" fill="#313131"/>
<path d="M623.47 232.916L622.447 229.892L618.453 230.35L618.163 229.151L623.026 228.112L626.225 239.358L621.426 240.924L621.11 239.821L624.718 238.14L623.936 234.976L612.594 238.15L613.124 240.737L612.236 241.008L610.299 234.174L611.186 233.903L612.007 236.16L623.47 232.916Z" fill="#313131"/>
<path d="M620.529 248.833L620.353 247.971C620.118 247.704 619.643 247.577 618.978 247.399C618.313 247.22 617.527 247.112 616.551 246.952C615.575 246.792 614.91 246.614 614.435 246.487C613.96 246.359 613.7 246.188 613.656 245.973L613.101 243.481L613.964 243.305L614.286 244.002C614.356 244.123 614.615 244.294 614.97 244.491C615.35 244.593 615.92 244.746 616.655 245.044C617.51 245.274 618.271 245.477 618.936 245.656C619.481 245.903 619.93 246.126 620.259 246.418C620.299 245.511 620.597 244.777 621.061 244.188C621.644 243.529 622.367 243.112 623.23 242.936C624.643 242.601 625.809 242.812 626.537 243.516C627.265 244.221 627.866 245.4 628.244 247.029C628.358 247.365 628.421 247.891 628.483 248.418C628.521 249.039 628.609 249.47 628.722 249.806L629.347 252.418L628.459 252.689L627.84 251.199L616.53 253.873L616.788 255.571L615.951 255.653L614.633 250.309L615.495 250.132L616.064 251.812L620.856 250.652L620.529 248.833ZM627.526 248.569C627.463 248.042 627.401 247.516 627.312 247.085C627.066 246.103 626.719 245.5 626.225 245.062C625.731 244.624 624.92 244.611 623.937 244.857C622.954 245.103 622.231 245.52 621.863 246.134C621.495 246.749 621.386 247.535 621.632 248.517C621.878 249.5 622.01 250.146 622.15 250.387L627.709 249.025L627.526 248.569Z" fill="#313131"/>
<path d="M629.713 259.035L629.026 255.897L625.014 256.044L624.819 254.871L629.769 254.262L632.012 265.66L627.124 266.795L626.929 265.622L630.651 264.277L630.179 261.095L618.592 263.286L618.905 265.917L618.043 266.093L616.657 259.101L617.519 258.925L618.22 261.252L629.713 259.035Z" fill="#313131"/>
<path d="M620.35 276.49C620.82 275.495 621.576 274.577 622.54 274.021C623.529 273.369 624.753 272.984 626.141 272.745C627.504 272.601 628.816 272.646 629.905 273.142C631.02 273.543 631.938 274.298 632.71 275.218C633.482 276.138 633.893 277.266 634.062 278.534C634.213 279.491 634.218 280.613 634.052 281.994L633.994 282.59L630.673 282.821L630.503 281.553L632.761 280.732C632.906 280.567 633.008 280.187 633.015 279.781C633.022 279.376 633.08 278.78 632.922 278.228C632.815 277.487 632.493 276.789 631.929 276.231C631.366 275.673 630.657 275.279 629.706 275.024C628.756 274.769 627.729 274.8 626.487 274.875C625.314 275.07 624.332 275.316 623.393 275.777C622.455 276.239 621.801 276.777 621.312 277.46C620.824 278.144 620.689 279.025 620.771 279.862C620.903 280.508 620.966 281.034 621.175 281.396C621.288 281.732 621.522 281.998 621.757 282.265L623.657 282.774L623.637 283.991L620.918 283.874C620.874 283.658 620.786 283.227 620.508 282.745C620.324 282.288 620.116 281.927 620.027 281.496C619.939 281.065 619.756 280.608 619.719 279.987C619.739 278.77 619.855 277.579 620.35 276.49Z" fill="#313131"/>
<path d="M635.253 290.058L634.321 290.113L633.899 288.269L624.505 289.113L626.893 290.466L633.973 295.215L634.499 295.152L634.552 293.435L635.483 293.379L635.946 298.494L635.014 298.55L634.68 297.136L623.088 298.206L623.06 299.828L622.129 299.884L621.691 294.674L622.623 294.618L623.001 296.247L632.49 295.429L630.171 294.196L623.022 289.327L622.401 289.364L622.348 291.081L621.417 291.137L620.979 285.927L621.911 285.871L622.22 287.38L633.812 286.31L633.909 284.808L634.841 284.752L635.253 290.058Z" fill="#313131"/>
<path d="M636.534 310.365L631.66 310.688L631.585 309.446L635.344 308.722L635.318 304.64L623.567 305.159L623.513 308.403L622.581 308.459L622.203 301.126L623.135 301.07L623.411 303.08L634.972 302.51L635.101 300.508L636.033 300.452L636.534 310.365Z" fill="#313131"/>
<path d="M635.453 313.64L635.644 312.163L636.551 312.203L636.513 317.285L635.607 317.246L635.419 315.668L630.431 315.656L630.391 322.266L635.379 322.278L635.571 320.802L636.477 320.841L636.465 325.828L635.558 325.789L635.345 324.306L623.722 324.349L623.53 325.826L622.623 325.786L622.636 320.799L623.542 320.838L623.73 322.416L629.123 322.435L629.163 315.825L623.77 315.806L623.552 317.378L622.646 317.338L622.589 312.23L623.495 312.269L623.709 313.753L635.453 313.64Z" fill="#313131"/>
<path d="M636.495 332.559L636.461 334.587L623.388 338.52L623.177 339.685L622.271 339.646L622.473 334.71L623.38 334.749L623.473 336.301L626.326 335.538L626.56 330.101L623.881 329.077L623.663 330.649L622.757 330.609L622.927 326.173L623.833 326.212L623.933 327.36L636.495 332.559ZM633.445 333.677L635.074 333.299L633.389 332.745L627.46 330.545L627.213 335.267L633.445 333.677Z" fill="#313131"/>
<path d="M626.859 344.95C625.149 344.492 623.939 344.066 623.09 343.431C622.666 343.114 622.337 342.822 622.223 342.486C622.014 342.124 622.021 341.719 622.028 341.313C622.086 340.717 622.093 340.312 622.264 340.052L623.791 340.054C623.715 340.339 623.683 340.84 623.625 341.435C623.574 341.625 623.618 341.841 623.757 342.082C623.801 342.297 623.966 342.443 624.226 342.615C625.568 343.687 628.634 344.407 633.115 344.793L634.617 344.89L634.987 342.748L635.893 342.787L634.948 353.535L634.042 353.495L634 351.753L622.467 350.699L622.078 352.531L621.172 352.491L621.698 346.725L622.605 346.764L622.596 348.697L634.129 349.75L634.432 345.961L632.74 345.813C630.452 345.607 628.5 345.288 626.859 344.95Z" fill="#313131"/>
<path d="M628.501 360.872C628.309 362.349 627.788 363.533 626.893 364.21C626.094 364.913 625.016 365.133 623.73 364.992C622.349 364.826 621.31 364.14 620.658 363.151C620.007 362.161 619.837 360.893 620.029 359.417C620.08 359.227 620.131 359.037 620.087 358.821C620.043 358.606 620.189 358.441 620.265 358.156C620.443 357.491 620.527 356.8 620.679 356.23L621.056 353.683L621.937 353.817L621.91 355.439L633.48 357.114L633.983 355.618L634.864 355.753L634.059 361.037L633.178 360.903L633.066 359.04L628.757 358.394L628.501 360.872ZM621.266 358.221C621.215 358.411 621.114 358.791 621.107 359.196C620.922 360.267 621.124 361.034 621.661 361.688C622.199 362.341 622.909 362.735 624.005 362.825C624.981 362.985 625.843 362.808 626.376 362.34C627.004 361.897 627.303 361.162 627.488 360.091L627.781 358.235L621.496 357.365C621.394 357.745 621.317 358.031 621.266 358.221ZM632.206 373.273L631.325 373.139L631.378 371.421L619.903 369.772L619.444 371.483L618.564 371.349L619.299 365.944L620.18 366.078L620.127 367.795L631.602 369.444L632.061 367.734L632.941 367.868L632.206 373.273Z" fill="#313131"/>
<path d="M629.395 381.483L629.967 380.109L630.822 380.338L629.688 385.33L628.833 385.101L628.955 383.504L624.058 382.396L622.637 388.839L627.534 389.948L628.106 388.573L628.962 388.803L627.853 393.7L626.998 393.471L627.095 391.969L615.728 389.535L615.251 390.935L614.396 390.705L615.504 385.808L616.36 386.037L616.263 387.539L621.566 388.654L622.987 382.211L617.684 381.095L617.156 382.685L616.3 382.456L617.435 377.463L618.29 377.693L618.193 379.195L629.395 381.483Z" fill="#313131"/>
<path d="M626.363 400.023L625.828 402.019L612.251 403.27L611.755 404.36L610.9 404.131L612.078 399.353L612.934 399.583L612.716 401.154L615.606 401.012L616.912 395.759L614.455 394.286L613.857 395.756L613.002 395.527L614.053 391.225L614.908 391.454L614.793 392.645L626.363 400.023ZM623.206 400.4L624.949 400.357L623.435 399.544L618.096 396.281L616.969 400.868L623.206 400.4Z" fill="#313131"/>
<path d="M620.837 414.942L621.752 413.048L622.582 413.372L621.024 418.047L612.221 417.828L609.813 417.692L611.915 418.968L619.083 424.148L617.525 428.824L616.695 428.499L617.135 426.478L605.622 424.208L604.93 425.652L604.1 425.328L605.785 420.178L606.615 420.502L606.277 422.143L614.527 424.048L618.094 424.8L615.783 423.162L607.532 417.081L607.933 415.966L617.407 415.958L621.153 416.045L617.789 414.533L610.042 411.133L609.274 412.862L608.444 412.538L609.977 407.957L610.806 408.282L610.494 409.828L620.837 414.942Z" fill="#313131"/>
<path d="M614.906 435.557L614.181 437.502L600.562 437.01L599.997 437.979L599.167 437.655L601.011 433.056L601.84 433.38L601.433 434.901L604.342 435.069L606.313 429.995L604.052 428.167L603.265 429.586L602.435 429.262L604.056 425.112L604.886 425.437L604.675 426.602L614.906 435.557ZM611.661 435.503L613.353 435.65L611.985 434.673L607.136 430.725L605.438 435.159L611.661 435.503Z" fill="#313131"/>
<path d="M609.838 444.588L610.669 443.385L611.499 443.71L610.482 445.984C610.26 446.433 610.158 446.813 609.961 447.168C609.688 447.808 609.535 448.378 609.287 448.923C608.544 450.557 607.763 451.57 606.825 452.032C605.912 452.398 604.885 452.429 603.605 451.882C602.706 451.437 602.022 450.948 601.51 450.2C600.997 449.452 600.795 448.684 600.739 447.753C600.683 446.821 600.938 445.871 601.383 444.971C601.58 444.617 601.656 444.332 601.853 443.977C602.05 443.622 602.101 443.432 602.221 443.363L598.478 441.748L597.271 443.971L596.441 443.647L598.945 438.105L599.775 438.429L599.272 439.924L609.838 444.588ZM602.282 445.416C601.838 446.315 601.824 447.127 602.095 448.014C602.367 448.902 603.12 449.511 604.4 450.058C605.394 450.528 606.205 450.541 606.782 450.289C607.48 449.966 607.969 449.282 608.439 448.288C608.636 447.933 608.738 447.553 608.865 447.078C608.941 446.793 608.992 446.603 609.018 446.508L602.905 443.851C602.829 444.136 602.581 444.681 602.282 445.416Z" fill="#313131"/>
<path d="M593.37 451.686C594.334 451.129 595.438 450.814 596.559 450.809C597.776 450.829 599.012 451.16 600.266 451.802C601.52 452.444 602.533 453.224 603.184 454.214C603.931 455.229 604.247 456.332 604.347 457.479C604.447 458.626 604.236 459.792 603.62 460.951C603.175 461.851 602.515 462.794 601.709 463.902L601.366 464.421L598.434 462.821L598.929 461.731L601.305 462.368C601.521 462.324 601.787 462.09 602.079 461.76C602.371 461.431 602.593 460.982 602.936 460.462C603.33 459.753 603.413 459.062 603.237 458.2C603.13 457.459 602.712 456.736 602.105 455.962C601.472 455.283 600.623 454.648 599.464 454.032C598.375 453.536 597.355 453.161 596.379 453.001C595.403 452.842 594.472 452.898 593.654 453.29C592.861 453.587 592.303 454.15 591.858 455.049C591.585 455.689 591.362 456.139 591.356 456.544C591.254 456.925 591.272 457.235 591.386 457.571L592.722 459.049L592.061 459.993L589.845 458.381C589.921 458.095 590.023 457.715 590.151 457.24C590.278 456.765 590.285 456.359 590.412 455.884C590.514 455.504 590.762 454.959 591.01 454.415C591.626 453.256 592.381 452.338 593.37 451.686Z" fill="#313131"/>
<path d="M593.743 479.185L592.964 478.671L593.733 476.942L585.627 472.223L586.802 474.677L589.746 482.698L590.196 482.92L591.268 481.578L592.047 482.092L589.444 486.487L588.665 485.973L589.237 484.599L579.192 478.75L578.24 480.022L577.436 479.603L580.065 475.113L580.869 475.532L580.151 477.071L588.327 481.91L587.101 479.646L584.182 471.531L583.568 471.162L582.47 472.6L581.666 472.18L584.32 467.595L585.125 468.014L584.527 469.484L594.571 475.333L595.498 474.155L596.277 474.67L593.743 479.185Z" fill="#313131"/>
<path d="M587.025 489.812C586.777 490.357 586.65 490.832 586.453 491.186C586.256 491.541 586.059 491.896 585.888 492.155C585.031 493.454 584.181 494.346 583.267 494.713C582.354 495.079 581.448 495.04 580.574 494.5C579.7 493.961 579.283 493.238 579.106 492.375C578.93 491.513 579.039 490.728 579.388 489.803C578.728 490.746 577.954 491.354 577.092 491.53C576.23 491.707 575.444 491.598 574.665 491.084C573.532 490.372 572.855 489.478 572.755 488.331C572.629 487.279 572.986 485.948 574.014 484.39C574.383 483.776 574.82 483.282 575.258 482.788C575.671 482.39 576.058 482.086 576.324 481.852C576.591 481.618 576.737 481.453 576.832 481.478L579.352 483.478L578.837 484.257L576.538 483.335C575.935 483.683 575.377 484.246 574.717 485.19C574.228 485.874 574.145 486.564 574.277 487.211C574.409 487.857 574.973 488.416 575.847 488.956C576.461 489.324 577.126 489.502 577.868 489.395C578.609 489.288 579.263 488.751 579.803 487.877L580.514 486.743L581.388 487.283L580.848 488.157C580.531 488.581 580.403 489.056 580.276 489.531C580.244 490.032 580.306 490.558 580.49 491.015C580.673 491.471 581.072 491.883 581.591 492.226C582.275 492.715 582.966 492.798 583.517 492.641C584.069 492.483 584.602 492.014 585.09 491.331C585.408 490.906 585.63 490.457 585.637 490.051C585.739 489.671 585.72 489.36 585.581 489.119L584.29 487.857L584.95 486.913L587.433 488.291C587.375 488.887 587.178 489.242 587.025 489.812Z" fill="#313131"/>
<path d="M577.237 502.773L578.354 501.647L579.133 502.161L577.666 504.213C577.375 504.542 577.152 504.991 576.784 505.606C576.441 506.125 576.244 506.48 576.073 506.739C575.095 508.107 574.15 508.974 573.262 509.246C572.375 509.517 571.494 509.383 570.74 508.774C570.056 508.285 569.519 507.631 569.342 506.769C569.14 506.002 569.249 505.217 569.573 504.387C568.913 505.33 568.139 505.938 567.251 506.209C566.389 506.386 565.508 506.251 564.755 505.642C563.742 504.861 563.185 503.897 563.085 502.75C562.985 501.603 563.488 500.108 564.732 498.506C565.024 498.177 565.221 497.822 565.513 497.493C566.122 496.739 566.465 496.22 566.585 496.151L568.052 494.099L568.831 494.613L568.069 495.937L577.237 502.773ZM565.321 498.969C564.54 499.982 564.285 500.933 564.297 501.649C564.309 502.365 564.821 503.113 565.6 503.628C566.354 504.237 567.114 504.441 567.761 504.308C568.407 504.176 569.061 503.638 569.695 502.79C570.476 501.777 570.87 501.067 571.041 500.808L566.514 497.557C566.393 497.627 565.955 498.121 565.321 498.969ZM571.376 502.221L570.741 503.07C570.252 503.754 570.074 504.419 570.206 505.066C570.338 505.712 570.781 506.34 571.465 506.829C572.149 507.318 572.814 507.496 573.435 507.459C573.987 507.301 574.615 506.858 575.275 505.915C575.567 505.585 575.789 505.136 575.986 504.781L576.183 504.426L572.01 501.373C571.959 501.563 571.693 501.797 571.376 502.221Z" fill="#313131"/>
<path d="M568.462 516.515L567.218 518.117L554.263 513.627L553.438 514.425L552.685 513.815L555.757 509.953L556.51 510.563L555.653 511.861L558.333 512.884L561.722 508.598L560.115 506.232L558.998 507.359L558.245 506.749L561 503.311L561.753 503.921L561.162 504.985L568.462 516.515ZM565.377 515.485L566.942 516.108L565.891 514.706L562.399 509.492L559.473 513.19L565.377 515.485Z" fill="#313131"/>
<path d="M551.11 516.653C552.213 516.337 553.334 516.332 554.475 516.638C555.615 516.944 556.749 517.655 557.831 518.556C558.914 519.457 559.661 520.472 560.071 521.601C560.482 522.729 560.582 523.876 560.371 525.042C560.161 526.208 559.57 527.272 558.815 528.19C558.206 528.944 557.286 529.716 556.245 530.557L555.738 530.931L553.32 528.551L554.17 527.659L556.298 528.84C556.514 528.796 556.85 528.682 557.237 528.379C557.598 528.17 558.011 527.771 558.353 527.252C558.912 526.688 559.211 525.954 559.224 525.142C559.333 524.357 559.131 523.59 558.644 522.746C558.157 521.903 557.575 521.034 556.562 520.253C555.644 519.498 554.795 518.863 553.871 518.513C552.946 518.164 552.065 518.029 551.228 518.111C550.392 518.192 549.669 518.61 549.059 519.363C548.621 519.857 548.304 520.281 548.202 520.661C548.005 521.016 548.024 521.326 547.947 521.612L548.801 523.368L547.881 524.14L546.198 522.059C546.344 521.895 546.541 521.54 546.788 520.995C547.011 520.546 547.208 520.191 547.405 519.836C547.601 519.482 547.919 519.057 548.357 518.564C548.991 517.715 550.006 516.969 551.11 516.653Z" fill="#313131"/>
<path d="M547.194 536.586C547.51 537.69 547.54 538.716 547.286 539.667C547.031 540.617 546.586 541.516 545.787 542.219C544.937 543.111 543.973 543.668 542.99 543.914C542.008 544.16 540.911 544.07 539.891 543.695C538.871 543.32 537.833 542.634 536.845 541.758C535.788 540.762 534.972 539.627 534.587 538.403C534.176 537.274 533.981 536.102 534.261 535.056C534.446 533.985 535.011 533.016 535.741 532.193C536.592 531.301 537.556 530.744 538.564 530.403C539.546 530.157 540.643 530.247 541.662 530.622C542.682 530.998 543.721 531.683 544.709 532.559L546.822 530.375L542.852 526.562L541.571 527.542L540.938 526.863L544.485 523.128L545.144 523.712L544.192 524.985L552.529 533.025L553.689 532.114L554.322 532.792L550.801 536.432L550.168 535.753L551.12 534.481L547.48 530.959L545.367 533.143C546.348 534.424 546.879 535.483 547.194 536.586ZM546.02 538.309C545.73 537.111 544.869 535.76 543.413 534.351C542.122 533.088 540.799 532.326 539.538 532.09C538.277 531.854 537.174 532.17 536.323 533.062C535.473 533.955 535.218 534.905 535.508 536.103C535.799 537.302 536.659 538.653 538.21 540.087C539.501 541.349 540.73 542.086 541.965 542.417C543.201 542.748 544.209 542.407 545.059 541.515C545.909 540.622 546.189 539.577 546.02 538.309Z" fill="#313131"/>
<path d="M528.923 547.377C528.137 547.268 527.092 546.988 525.856 546.657C525.001 546.428 524.336 546.249 523.861 546.122C523.48 546.02 523.17 546.039 522.929 546.178L522.231 546.5L521.598 545.821L523.248 544.226C523.489 544.087 523.825 543.973 524.49 544.152C525.061 544.305 525.916 544.534 527.056 544.839C528.266 545.265 529.217 545.52 530.002 545.629C530.668 545.807 531.194 545.744 531.486 545.415L532.31 544.617L528.677 540.69L527.301 541.645L526.668 540.967L530.449 537.498L531.082 538.177L530.061 539.329L537.96 547.863L539.216 546.977L539.849 547.656L536.188 551.055L535.555 550.376L536.507 549.103L532.874 545.176L531.662 546.277L532.554 552.831L533.81 551.945L534.443 552.624L531.049 555.789L530.416 555.11L531.342 553.933L530.596 547.214C530.425 547.473 529.709 547.485 528.923 547.377Z" fill="#313131"/>
<path d="M519.643 548.557C520.695 548.431 521.766 548.616 522.735 549.182C523.825 549.677 524.717 550.528 525.654 551.593C526.591 552.659 527.191 553.839 527.481 555.037C527.772 556.235 527.777 557.357 527.401 558.377C527.026 559.397 526.461 560.366 525.541 561.138C524.088 562.378 522.529 562.877 520.957 562.66C519.386 562.442 517.923 561.439 516.423 559.815C515.486 558.749 514.886 557.57 514.595 556.371C514.305 555.173 514.3 554.052 514.701 552.937C515.007 551.796 515.641 550.948 516.561 550.176C517.558 549.118 518.591 548.682 519.643 548.557ZM526.205 557.139C526.036 555.872 525.296 554.451 523.96 552.973C522.72 551.52 521.517 550.689 520.307 550.262C519.097 549.836 518.019 550.057 517.099 550.829C516.179 551.601 515.804 552.621 515.974 553.889C516.143 555.156 516.883 556.577 518.193 558.15C519.434 559.603 520.637 560.435 521.847 560.861C523.082 561.192 524.16 560.971 525.08 560.199C526 559.427 526.375 558.407 526.205 557.139Z" fill="#313131"/>
<path d="M517.512 566.014L518.837 565.249L519.445 566.023L517.51 567.542C517.149 567.75 516.736 568.149 516.298 568.643C515.886 569.042 515.499 569.346 515.258 569.485C513.856 570.535 512.797 571.066 511.865 571.122C510.934 571.178 510.129 570.759 509.522 569.985C508.984 569.331 508.687 568.539 508.701 567.728C508.714 566.916 509.013 566.182 509.597 565.523C508.677 566.295 507.764 566.662 506.858 566.623C505.951 566.584 505.147 566.164 504.539 565.391C503.793 564.376 503.477 563.272 503.688 562.107C503.898 560.941 504.851 559.668 506.398 558.453C506.785 558.149 507.147 557.941 507.413 557.706C508.187 557.099 508.669 556.821 508.815 556.656L510.75 555.137L511.262 555.886L510.146 557.013L517.512 566.014ZM507.126 559.157C506.111 559.904 505.597 560.683 505.489 561.469C505.38 562.254 505.582 563.021 506.189 563.795C506.797 564.569 507.411 564.938 508.102 565.021C508.792 565.104 509.49 564.782 510.384 564.105C511.399 563.358 512.053 562.82 512.224 562.56L508.813 558.183C508.433 558.082 507.926 558.455 507.126 559.157ZM512.058 563.942L511.284 564.549C510.63 565.087 510.262 565.702 510.179 566.392C510.096 567.083 510.323 567.755 510.956 568.434C511.494 569.087 512.108 569.456 512.704 569.513C513.299 569.571 513.997 569.249 514.891 568.572C515.278 568.268 515.57 567.939 515.957 567.635L516.224 567.401L513.047 563.29C512.711 563.404 512.445 563.638 512.058 563.942Z" fill="#313131"/>
<g style="mix-blend-mode:overlay">
<circle cx="102.851" cy="98.0291" r="2" fill="#313131"/>
</g>
<g style="mix-blend-mode:overlay">
<circle cx="507.35" cy="72.3999" r="2" fill="#313131"/>
</g>
</svg>
