<svg width="24" height="34" viewBox="0 0 24 34" fill="none" xmlns="http://www.w3.org/2000/svg">
<mask id="path-1-outside-1_2_395" maskUnits="userSpaceOnUse" x="0.162109" y="0.309814" width="24" height="34" fill="black">
<rect fill="white" x="0.162109" y="0.309814" width="24" height="34"/>
<path d="M21.9784 30.9437H21.4155C21.4155 30.9377 21.4128 30.9318 21.4116 30.9261L21.3962 30.8573C21.3863 30.812 21.3757 30.7671 21.3646 30.7226C21.3599 30.7016 21.3547 30.6806 21.3496 30.6597C21.335 30.6009 21.3196 30.5422 21.3038 30.4834L21.2991 30.4666C21.2817 30.4029 21.2635 30.3396 21.2446 30.2765L21.2256 30.2155C21.2126 30.172 21.1988 30.129 21.1862 30.086C21.1787 30.0624 21.1708 30.0392 21.1633 30.016C21.1495 29.9744 21.1352 29.9329 21.1206 29.8917C21.1131 29.87 21.1052 29.8479 21.0977 29.8266C21.0793 29.775 21.0604 29.7237 21.0409 29.6728C21.0366 29.6619 21.033 29.6515 21.0287 29.6406C21.0058 29.5807 20.9817 29.5212 20.9572 29.4617C20.9485 29.44 20.9395 29.4187 20.9304 29.3974C20.9138 29.3599 20.8972 29.3188 20.8802 29.2798L20.8483 29.2076C20.8317 29.1702 20.8147 29.1328 20.7973 29.0953C20.7867 29.0721 20.7756 29.0486 20.7646 29.0254C20.7444 28.9823 20.7251 28.9397 20.7026 28.8974C20.6943 28.8813 20.6868 28.8648 20.6785 28.8483C20.6505 28.7926 20.6217 28.7361 20.5925 28.6822L20.553 28.6122L20.4973 28.5108L20.4539 28.4359C20.4358 28.4045 20.4176 28.373 20.399 28.3416C20.3844 28.3162 20.3694 28.2907 20.3544 28.2668C20.3339 28.2327 20.315 28.1994 20.2925 28.1657L20.2356 28.0744C20.2088 28.0325 20.1819 27.9902 20.1543 27.9487C20.1369 27.9225 20.1196 27.8966 20.1018 27.8708C20.084 27.845 20.0647 27.8154 20.0457 27.7881C20.0268 27.7608 20.0063 27.7335 19.9889 27.7065C19.9715 27.6796 19.9526 27.6553 19.934 27.6317C19.9155 27.6081 19.8946 27.5767 19.8744 27.5493L19.8188 27.4745C19.7793 27.4247 19.743 27.3749 19.7043 27.3248L19.6502 27.2563C19.6273 27.2275 19.6036 27.199 19.5803 27.1706L19.5282 27.1077C19.5041 27.0789 19.4797 27.0505 19.4552 27.0217L19.4039 26.9625L19.3273 26.8757L19.2819 26.8256C19.1876 26.7219 19.0908 26.6197 18.9918 26.5202L18.9483 26.4764L18.8575 26.3877L18.8129 26.345C18.7814 26.3147 18.7498 26.2848 18.7178 26.2552L18.685 26.2253C18.5733 26.1224 18.4585 26.0221 18.3416 25.9259L18.3096 25.8993C18.2736 25.8694 18.2373 25.8398 18.2007 25.8106L18.1644 25.7814C18.1249 25.7515 18.089 25.7219 18.0507 25.6923L18.0313 25.6777C17.9022 25.5789 17.77 25.4828 17.6366 25.3903L17.618 25.3772C17.5758 25.3484 17.5336 25.32 17.4909 25.2919L17.4629 25.2736C17.4195 25.2447 17.3757 25.2167 17.3318 25.1886L17.3243 25.1841C17.1791 25.0921 17.031 25.0039 16.8802 24.9195L16.8743 24.9158C16.8266 24.8892 16.7788 24.8634 16.731 24.8376L16.7101 24.8263C16.4559 24.6904 16.1948 24.5656 15.9269 24.4521L15.9103 24.445C15.8397 24.415 15.7686 24.3862 15.6968 24.3578H17.1096C17.3397 24.3578 17.5265 24.1067 17.5265 23.7964C17.5265 23.4862 17.3397 23.2351 17.1096 23.2351H16.6888C16.7148 23.1722 16.7437 23.1011 16.7748 23.021C17.1728 22.786 17.873 22.2852 18.5678 21.3653L18.5733 21.3582C18.626 21.2894 18.6777 21.2181 18.7285 21.1445L18.7387 21.1299C18.7893 21.0577 18.8398 20.9832 18.8895 20.9054L18.9029 20.8848C18.9266 20.8474 18.9503 20.81 18.974 20.7725C18.974 20.7725 18.974 20.7695 18.9768 20.7677C19.0012 20.7302 19.0253 20.6891 19.0494 20.649L19.0648 20.6232C19.0853 20.5888 19.1062 20.5536 19.1264 20.5181C19.1303 20.5117 19.1343 20.5053 19.1378 20.4986C19.1611 20.4582 19.1844 20.417 19.2073 20.3755L19.2231 20.3466C19.242 20.3122 19.2606 20.2774 19.2791 20.2422C19.2847 20.2325 19.2902 20.2224 19.2953 20.2123C19.3174 20.17 19.3395 20.1273 19.3616 20.0839L19.377 20.0536C19.3944 20.0184 19.4122 19.9825 19.4295 19.9466L19.4485 19.9092C19.4698 19.865 19.4907 19.8201 19.5116 19.7748L19.5247 19.746C19.542 19.7086 19.559 19.6711 19.576 19.6337L19.5961 19.5888C19.6159 19.5435 19.6356 19.4979 19.6545 19.4518C19.6581 19.4436 19.6616 19.435 19.6648 19.4268C19.6826 19.3845 19.6999 19.3414 19.7173 19.298L19.737 19.2486C19.7532 19.2074 19.7694 19.1659 19.7852 19.1244L19.7971 19.0929C19.8156 19.0435 19.8338 18.993 19.8519 18.9432L19.8709 18.8901C19.8851 18.8504 19.8989 18.81 19.9127 18.7696C19.9178 18.7546 19.923 18.7396 19.9277 18.7247C19.9451 18.673 19.9625 18.6203 19.9794 18.5675C19.985 18.5492 19.9909 18.5301 19.9964 18.5128L20.0359 18.3897C20.041 18.3718 20.0465 18.3523 20.0517 18.3362C20.0678 18.2819 20.084 18.2266 20.0994 18.1708C20.1046 18.1532 20.1093 18.1352 20.114 18.1173C20.1259 18.0742 20.1377 18.0312 20.1492 17.9874C20.1543 17.9676 20.1594 17.9477 20.165 17.9279C20.1796 17.8703 20.1942 17.8123 20.2084 17.7535L20.2202 17.7045C20.2313 17.6577 20.2423 17.6105 20.253 17.563L20.2672 17.4994C20.2806 17.4384 20.294 17.3774 20.3067 17.3153C20.3094 17.3033 20.3118 17.2909 20.3142 17.2778C20.3252 17.2243 20.3359 17.1701 20.3461 17.1158C20.3505 17.0937 20.3544 17.0716 20.3588 17.0496C20.369 16.9938 20.3789 16.9373 20.3888 16.8815C20.3908 16.8695 20.3931 16.8579 20.3951 16.8463C20.4061 16.7805 20.4169 16.7141 20.4275 16.6472C20.431 16.6248 20.4346 16.6023 20.4377 16.5795C20.446 16.5252 20.4539 16.4706 20.4618 16.4152L20.4689 16.3643C20.4784 16.2955 20.4875 16.2262 20.4962 16.1559C20.4989 16.1338 20.5013 16.1117 20.504 16.0892C20.5109 16.0334 20.5172 15.9772 20.523 15.9208C20.5254 15.9006 20.5277 15.8808 20.5297 15.8606C20.5373 15.7882 20.5444 15.7153 20.551 15.6417C20.551 15.6211 20.5546 15.6005 20.5562 15.5795C20.5613 15.5204 20.5664 15.4609 20.5708 15.401C20.5708 15.3789 20.5743 15.3569 20.5759 15.3348C20.5814 15.2584 20.5866 15.1816 20.5913 15.1042C20.5913 15.0867 20.5913 15.0668 20.594 15.0511C20.5976 14.9867 20.6012 14.922 20.6039 14.8569C20.6039 14.8333 20.6039 14.8097 20.6071 14.7861C20.6102 14.7057 20.6134 14.6248 20.6158 14.5429C20.6158 14.5316 20.6158 14.52 20.6158 14.5084C20.6179 14.4356 20.6194 14.362 20.6205 14.2876C20.6205 14.2633 20.6205 14.239 20.6205 14.2147C20.6205 14.1348 20.6205 14.0545 20.6205 13.9737V13.9549C20.6205 13.8689 20.6205 13.7817 20.6205 13.693V13.6181C20.6205 13.5433 20.6173 13.4647 20.6154 13.3868V13.3445C20.6126 13.2547 20.6091 13.1638 20.6055 13.0725C20.6055 13.0489 20.6031 13.0249 20.6023 13.0014C20.5989 12.9245 20.595 12.8472 20.5905 12.7693C20.5905 12.7502 20.5905 12.7319 20.5873 12.7113C20.5818 12.6178 20.5758 12.5235 20.5692 12.4284L20.5644 12.3622C20.5585 12.2828 20.5526 12.2031 20.5459 12.1226C20.5459 12.0994 20.5423 12.0762 20.5404 12.053C20.5321 11.9557 20.523 11.8573 20.5135 11.7585C20.5135 11.7398 20.5096 11.7211 20.508 11.702C20.4997 11.6178 20.4906 11.5328 20.4815 11.4471C20.4788 11.4213 20.476 11.3959 20.4729 11.37C20.4618 11.2682 20.45 11.1661 20.4373 11.0624C20.4373 11.0497 20.4338 11.037 20.4322 11.025C20.4209 10.9322 20.4089 10.8389 20.3963 10.7451C20.3923 10.7174 20.3888 10.6897 20.3848 10.662C20.3701 10.5557 20.355 10.4485 20.3394 10.3405C18.7604 -0.315723 7.57087 1.41366 7.57087 1.41366L7.9293 3.70328L1.16211 10.4808L1.45778 13.0979L4.02128 14.5949C4.13556 14.3195 4.28228 14.0573 4.45866 13.8131C6.11266 12.0044 9.32158 10.5845 10.2402 10.29C10.4241 10.2312 10.5287 10.2016 10.5287 10.2016C6.13477 15.593 6.63452 21.7695 6.83032 23.2418C6.62663 23.2792 6.46912 23.5124 6.46912 23.7968C6.46912 24.1067 6.65584 24.3582 6.88598 24.3582H8.29879C5.9491 25.2906 4.08396 27.0665 3.11059 29.2982C3.10945 29.3012 3.10813 29.3042 3.10665 29.3072C3.0348 29.4728 2.96796 29.6409 2.90611 29.8113C2.90622 29.813 2.90622 29.8148 2.90611 29.8165C2.88954 29.8629 2.87335 29.9093 2.85756 29.9561C2.85164 29.9729 2.84572 29.9898 2.84019 30.007C2.82598 30.0489 2.81282 30.0912 2.80071 30.1339C2.79361 30.1556 2.7869 30.1777 2.78019 30.1994C2.76756 30.2394 2.75532 30.2798 2.74348 30.3202L2.72216 30.3951C2.71111 30.4325 2.70006 30.4726 2.68979 30.5115C2.68229 30.5392 2.67519 30.5665 2.66808 30.5942C2.65861 30.6316 2.64874 30.669 2.63966 30.7065C2.63058 30.7439 2.62189 30.7813 2.61321 30.821C2.60452 30.8606 2.59347 30.9071 2.584 30.9505H2.02069C1.91237 30.9482 1.80466 30.9665 1.70389 31.0042C1.60312 31.0419 1.51131 31.0984 1.43386 31.1702C1.3564 31.242 1.29486 31.3278 1.25285 31.4225C1.21083 31.5172 1.18919 31.6189 1.18919 31.7216C1.18919 31.8243 1.21083 31.926 1.25285 32.0207C1.29486 32.1154 1.3564 32.2011 1.43386 32.273C1.51131 32.3448 1.60312 32.4012 1.70389 32.439C1.80466 32.4767 1.91237 32.495 2.02069 32.4927H21.9855C22.0939 32.495 22.2016 32.4767 22.3023 32.439C22.4031 32.4012 22.4949 32.3448 22.5724 32.273C22.6498 32.2011 22.7114 32.1154 22.7534 32.0207C22.7954 31.926 22.817 31.8243 22.817 31.7216C22.817 31.6189 22.7954 31.5172 22.7534 31.4225C22.7114 31.3278 22.6498 31.242 22.5724 31.1702C22.4949 31.0984 22.4031 31.0419 22.3023 31.0042C22.2016 30.9665 22.0939 30.9482 21.9855 30.9505L21.9784 30.9437Z"/>
</mask>
<path d="M21.9784 30.9437H21.4155C21.4155 30.9377 21.4128 30.9318 21.4116 30.9261L21.3962 30.8573C21.3863 30.812 21.3757 30.7671 21.3646 30.7226C21.3599 30.7016 21.3547 30.6806 21.3496 30.6597C21.335 30.6009 21.3196 30.5422 21.3038 30.4834L21.2991 30.4666C21.2817 30.4029 21.2635 30.3396 21.2446 30.2765L21.2256 30.2155C21.2126 30.172 21.1988 30.129 21.1862 30.086C21.1787 30.0624 21.1708 30.0392 21.1633 30.016C21.1495 29.9744 21.1352 29.9329 21.1206 29.8917C21.1131 29.87 21.1052 29.8479 21.0977 29.8266C21.0793 29.775 21.0604 29.7237 21.0409 29.6728C21.0366 29.6619 21.033 29.6515 21.0287 29.6406C21.0058 29.5807 20.9817 29.5212 20.9572 29.4617C20.9485 29.44 20.9395 29.4187 20.9304 29.3974C20.9138 29.3599 20.8972 29.3188 20.8802 29.2798L20.8483 29.2076C20.8317 29.1702 20.8147 29.1328 20.7973 29.0953C20.7867 29.0721 20.7756 29.0486 20.7646 29.0254C20.7444 28.9823 20.7251 28.9397 20.7026 28.8974C20.6943 28.8813 20.6868 28.8648 20.6785 28.8483C20.6505 28.7926 20.6217 28.7361 20.5925 28.6822L20.553 28.6122L20.4973 28.5108L20.4539 28.4359C20.4358 28.4045 20.4176 28.373 20.399 28.3416C20.3844 28.3162 20.3694 28.2907 20.3544 28.2668C20.3339 28.2327 20.315 28.1994 20.2925 28.1657L20.2356 28.0744C20.2088 28.0325 20.1819 27.9902 20.1543 27.9487C20.1369 27.9225 20.1196 27.8966 20.1018 27.8708C20.084 27.845 20.0647 27.8154 20.0457 27.7881C20.0268 27.7608 20.0063 27.7335 19.9889 27.7065C19.9715 27.6796 19.9526 27.6553 19.934 27.6317C19.9155 27.6081 19.8946 27.5767 19.8744 27.5493L19.8188 27.4745C19.7793 27.4247 19.743 27.3749 19.7043 27.3248L19.6502 27.2563C19.6273 27.2275 19.6036 27.199 19.5803 27.1706L19.5282 27.1077C19.5041 27.0789 19.4797 27.0505 19.4552 27.0217L19.4039 26.9625L19.3273 26.8757L19.2819 26.8256C19.1876 26.7219 19.0908 26.6197 18.9918 26.5202L18.9483 26.4764L18.8575 26.3877L18.8129 26.345C18.7814 26.3147 18.7498 26.2848 18.7178 26.2552L18.685 26.2253C18.5733 26.1224 18.4585 26.0221 18.3416 25.9259L18.3096 25.8993C18.2736 25.8694 18.2373 25.8398 18.2007 25.8106L18.1644 25.7814C18.1249 25.7515 18.089 25.7219 18.0507 25.6923L18.0313 25.6777C17.9022 25.5789 17.77 25.4828 17.6366 25.3903L17.618 25.3772C17.5758 25.3484 17.5336 25.32 17.4909 25.2919L17.4629 25.2736C17.4195 25.2447 17.3757 25.2167 17.3318 25.1886L17.3243 25.1841C17.1791 25.0921 17.031 25.0039 16.8802 24.9195L16.8743 24.9158C16.8266 24.8892 16.7788 24.8634 16.731 24.8376L16.7101 24.8263C16.4559 24.6904 16.1948 24.5656 15.9269 24.4521L15.9103 24.445C15.8397 24.415 15.7686 24.3862 15.6968 24.3578H17.1096C17.3397 24.3578 17.5265 24.1067 17.5265 23.7964C17.5265 23.4862 17.3397 23.2351 17.1096 23.2351H16.6888C16.7148 23.1722 16.7437 23.1011 16.7748 23.021C17.1728 22.786 17.873 22.2852 18.5678 21.3653L18.5733 21.3582C18.626 21.2894 18.6777 21.2181 18.7285 21.1445L18.7387 21.1299C18.7893 21.0577 18.8398 20.9832 18.8895 20.9054L18.9029 20.8848C18.9266 20.8474 18.9503 20.81 18.974 20.7725C18.974 20.7725 18.974 20.7695 18.9768 20.7677C19.0012 20.7302 19.0253 20.6891 19.0494 20.649L19.0648 20.6232C19.0853 20.5888 19.1062 20.5536 19.1264 20.5181C19.1303 20.5117 19.1343 20.5053 19.1378 20.4986C19.1611 20.4582 19.1844 20.417 19.2073 20.3755L19.2231 20.3466C19.242 20.3122 19.2606 20.2774 19.2791 20.2422C19.2847 20.2325 19.2902 20.2224 19.2953 20.2123C19.3174 20.17 19.3395 20.1273 19.3616 20.0839L19.377 20.0536C19.3944 20.0184 19.4122 19.9825 19.4295 19.9466L19.4485 19.9092C19.4698 19.865 19.4907 19.8201 19.5116 19.7748L19.5247 19.746C19.542 19.7086 19.559 19.6711 19.576 19.6337L19.5961 19.5888C19.6159 19.5435 19.6356 19.4979 19.6545 19.4518C19.6581 19.4436 19.6616 19.435 19.6648 19.4268C19.6826 19.3845 19.6999 19.3414 19.7173 19.298L19.737 19.2486C19.7532 19.2074 19.7694 19.1659 19.7852 19.1244L19.7971 19.0929C19.8156 19.0435 19.8338 18.993 19.8519 18.9432L19.8709 18.8901C19.8851 18.8504 19.8989 18.81 19.9127 18.7696C19.9178 18.7546 19.923 18.7396 19.9277 18.7247C19.9451 18.673 19.9625 18.6203 19.9794 18.5675C19.985 18.5492 19.9909 18.5301 19.9964 18.5128L20.0359 18.3897C20.041 18.3718 20.0465 18.3523 20.0517 18.3362C20.0678 18.2819 20.084 18.2266 20.0994 18.1708C20.1046 18.1532 20.1093 18.1352 20.114 18.1173C20.1259 18.0742 20.1377 18.0312 20.1492 17.9874C20.1543 17.9676 20.1594 17.9477 20.165 17.9279C20.1796 17.8703 20.1942 17.8123 20.2084 17.7535L20.2202 17.7045C20.2313 17.6577 20.2423 17.6105 20.253 17.563L20.2672 17.4994C20.2806 17.4384 20.294 17.3774 20.3067 17.3153C20.3094 17.3033 20.3118 17.2909 20.3142 17.2778C20.3252 17.2243 20.3359 17.1701 20.3461 17.1158C20.3505 17.0937 20.3544 17.0716 20.3588 17.0496C20.369 16.9938 20.3789 16.9373 20.3888 16.8815C20.3908 16.8695 20.3931 16.8579 20.3951 16.8463C20.4061 16.7805 20.4169 16.7141 20.4275 16.6472C20.431 16.6248 20.4346 16.6023 20.4377 16.5795C20.446 16.5252 20.4539 16.4706 20.4618 16.4152L20.4689 16.3643C20.4784 16.2955 20.4875 16.2262 20.4962 16.1559C20.4989 16.1338 20.5013 16.1117 20.504 16.0892C20.5109 16.0334 20.5172 15.9772 20.523 15.9208C20.5254 15.9006 20.5277 15.8808 20.5297 15.8606C20.5373 15.7882 20.5444 15.7153 20.551 15.6417C20.551 15.6211 20.5546 15.6005 20.5562 15.5795C20.5613 15.5204 20.5664 15.4609 20.5708 15.401C20.5708 15.3789 20.5743 15.3569 20.5759 15.3348C20.5814 15.2584 20.5866 15.1816 20.5913 15.1042C20.5913 15.0867 20.5913 15.0668 20.594 15.0511C20.5976 14.9867 20.6012 14.922 20.6039 14.8569C20.6039 14.8333 20.6039 14.8097 20.6071 14.7861C20.6102 14.7057 20.6134 14.6248 20.6158 14.5429C20.6158 14.5316 20.6158 14.52 20.6158 14.5084C20.6179 14.4356 20.6194 14.362 20.6205 14.2876C20.6205 14.2633 20.6205 14.239 20.6205 14.2147C20.6205 14.1348 20.6205 14.0545 20.6205 13.9737V13.9549C20.6205 13.8689 20.6205 13.7817 20.6205 13.693V13.6181C20.6205 13.5433 20.6173 13.4647 20.6154 13.3868V13.3445C20.6126 13.2547 20.6091 13.1638 20.6055 13.0725C20.6055 13.0489 20.6031 13.0249 20.6023 13.0014C20.5989 12.9245 20.595 12.8472 20.5905 12.7693C20.5905 12.7502 20.5905 12.7319 20.5873 12.7113C20.5818 12.6178 20.5758 12.5235 20.5692 12.4284L20.5644 12.3622C20.5585 12.2828 20.5526 12.2031 20.5459 12.1226C20.5459 12.0994 20.5423 12.0762 20.5404 12.053C20.5321 11.9557 20.523 11.8573 20.5135 11.7585C20.5135 11.7398 20.5096 11.7211 20.508 11.702C20.4997 11.6178 20.4906 11.5328 20.4815 11.4471C20.4788 11.4213 20.476 11.3959 20.4729 11.37C20.4618 11.2682 20.45 11.1661 20.4373 11.0624C20.4373 11.0497 20.4338 11.037 20.4322 11.025C20.4209 10.9322 20.4089 10.8389 20.3963 10.7451C20.3923 10.7174 20.3888 10.6897 20.3848 10.662C20.3701 10.5557 20.355 10.4485 20.3394 10.3405C18.7604 -0.315723 7.57087 1.41366 7.57087 1.41366L7.9293 3.70328L1.16211 10.4808L1.45778 13.0979L4.02128 14.5949C4.13556 14.3195 4.28228 14.0573 4.45866 13.8131C6.11266 12.0044 9.32158 10.5845 10.2402 10.29C10.4241 10.2312 10.5287 10.2016 10.5287 10.2016C6.13477 15.593 6.63452 21.7695 6.83032 23.2418C6.62663 23.2792 6.46912 23.5124 6.46912 23.7968C6.46912 24.1067 6.65584 24.3582 6.88598 24.3582H8.29879C5.9491 25.2906 4.08396 27.0665 3.11059 29.2982C3.10945 29.3012 3.10813 29.3042 3.10665 29.3072C3.0348 29.4728 2.96796 29.6409 2.90611 29.8113C2.90622 29.813 2.90622 29.8148 2.90611 29.8165C2.88954 29.8629 2.87335 29.9093 2.85756 29.9561C2.85164 29.9729 2.84572 29.9898 2.84019 30.007C2.82598 30.0489 2.81282 30.0912 2.80071 30.1339C2.79361 30.1556 2.7869 30.1777 2.78019 30.1994C2.76756 30.2394 2.75532 30.2798 2.74348 30.3202L2.72216 30.3951C2.71111 30.4325 2.70006 30.4726 2.68979 30.5115C2.68229 30.5392 2.67519 30.5665 2.66808 30.5942C2.65861 30.6316 2.64874 30.669 2.63966 30.7065C2.63058 30.7439 2.62189 30.7813 2.61321 30.821C2.60452 30.8606 2.59347 30.9071 2.584 30.9505H2.02069C1.91237 30.9482 1.80466 30.9665 1.70389 31.0042C1.60312 31.0419 1.51131 31.0984 1.43386 31.1702C1.3564 31.242 1.29486 31.3278 1.25285 31.4225C1.21083 31.5172 1.18919 31.6189 1.18919 31.7216C1.18919 31.8243 1.21083 31.926 1.25285 32.0207C1.29486 32.1154 1.3564 32.2011 1.43386 32.273C1.51131 32.3448 1.60312 32.4012 1.70389 32.439C1.80466 32.4767 1.91237 32.495 2.02069 32.4927H21.9855C22.0939 32.495 22.2016 32.4767 22.3023 32.439C22.4031 32.4012 22.4949 32.3448 22.5724 32.273C22.6498 32.2011 22.7114 32.1154 22.7534 32.0207C22.7954 31.926 22.817 31.8243 22.817 31.7216C22.817 31.6189 22.7954 31.5172 22.7534 31.4225C22.7114 31.3278 22.6498 31.242 22.5724 31.1702C22.4949 31.0984 22.4031 31.0419 22.3023 31.0042C22.2016 30.9665 22.0939 30.9482 21.9855 30.9505L21.9784 30.9437Z" stroke="white" stroke-width="1.73239" mask="url(#path-1-outside-1_2_395)"/>
</svg>
